<?xml version="1.0" encoding="utf-8"?>
<!-- Generator: Adobe Illustrator 24.1.0, SVG Export Plug-In . SVG Version: 6.00 Build 0)  -->
<svg version="1.1" id="Layer_1" xmlns="http://www.w3.org/2000/svg" xmlns:xlink="http://www.w3.org/1999/xlink" x="0px" y="0px"
	 viewBox="0 0 512 512" style="enable-background:new 0 0 512 512;" xml:space="preserve">
<style type="text/css">
	.st0{fill:#FFFFFF;}
</style>
<path class="st0" d="M96,21.3h117.7c7.1,0,14.1,0.6,21,1.9v115.5c0,29.4,23.9,53.3,53.3,53.3h115.4c0.7,3.8,1.2,7.7,1.5,11.5
	c0.5,5.9,5.8,10.2,11.5,9.8c5.9-0.5,10.2-5.6,9.8-11.5c-2.7-32.8-16.9-63.6-40.2-86.8l-74.3-74.3c-26.2-26.2-61-40.6-98-40.6H96
	C43.1,0,0,43.1,0,96v320c0,52.9,43.1,96,96,96h85.3c5.9,0,10.7-4.8,10.7-10.7s-4.8-10.7-10.7-10.7H96c-41.2,0-74.7-33.5-74.7-74.7
	V96C21.3,54.8,54.8,21.3,96,21.3z M371,130c11.6,11.6,20.6,25.5,26.5,40.6H288c-17.6,0-32-14.4-32-32V29.2
	c15.1,5.8,28.9,14.8,40.6,26.5L371,130L371,130z M496.4,250.3c-20.1-20.1-55.3-20.1-75.4,0L256.5,414.7
	c-14.1,14.1-21.9,32.9-21.9,52.8v33.8c0,5.9,4.8,10.7,10.7,10.7h33.8c19.9,0,38.7-7.8,52.8-21.9l164.4-164.4
	c10.1-10.1,15.6-23.5,15.6-37.7C512,273.7,506.5,260.4,496.4,250.3L496.4,250.3z M481.3,310.6L316.9,475
	c-10.1,10.1-23.5,15.6-37.7,15.6H256v-23.2c0-14.3,5.5-27.6,15.6-37.7L436,265.3c12.1-12.1,33.2-12.1,45.2,0c6,6,9.4,14.1,9.4,22.6
	C490.6,296.5,487.3,304.6,481.3,310.6L481.3,310.6z"/>
</svg>
