<?xml version="1.0" encoding="utf-8"?>
<!-- Generator: Adobe Illustrator 24.1.0, SVG Export Plug-In . SVG Version: 6.00 Build 0)  -->
<svg version="1.1" id="Layer_1" xmlns="http://www.w3.org/2000/svg" xmlns:xlink="http://www.w3.org/1999/xlink" x="0px" y="0px"
	 viewBox="0 0 24 24" style="enable-background:new 0 0 24 24;" xml:space="preserve">
<style type="text/css">
	.st0{fill:#BF3A3A;}
</style>
<path class="st0" d="M22.9,1.2c-0.1-0.2-0.4-0.3-0.7-0.2C22.2,1.1,17,4.2,12,9.1c-5-5-10.2-8-10.3-8.1C1.5,0.9,1.2,1,1.1,1.2
	C0.9,1.5,1,1.8,1.2,1.9c0.1,0,5.1,3,10.1,7.9c-0.1,0.1-0.3,0.3-0.4,0.4c-5.3,5.6-8.7,11.9-8.8,12c-0.1,0.2,0,0.5,0.2,0.7
	C2.4,23,2.5,23,2.6,23c0.2,0,0.4-0.1,0.4-0.3c0-0.1,3.4-6.2,8.6-11.8c0.1-0.1,0.3-0.3,0.4-0.4c0.1,0.1,0.3,0.3,0.4,0.4
	c5.3,5.5,8.6,11.7,8.6,11.8c0.1,0.2,0.3,0.3,0.4,0.3c0.1,0,0.2,0,0.2-0.1c0.2-0.1,0.3-0.4,0.2-0.7c0-0.1-3.4-6.3-8.8-12
	c-0.1-0.1-0.3-0.3-0.4-0.4C17.6,5,22.7,2,22.8,1.9C23,1.8,23.1,1.5,22.9,1.2L22.9,1.2z"/>
</svg>
