<?xml version="1.0" encoding="utf-8"?>
<!-- Generator: Adobe Illustrator 24.1.0, SVG Export Plug-In . SVG Version: 6.00 Build 0)  -->
<svg version="1.1" id="Layer_1" xmlns="http://www.w3.org/2000/svg" xmlns:xlink="http://www.w3.org/1999/xlink" x="0px" y="0px"
	 viewBox="0 0 24 24" style="enable-background:new 0 0 24 24;" xml:space="preserve">
<style type="text/css">
	.st0{fill:#FFFFFF;}
</style>
<path class="st0" d="M22.3,2.1c-1.1-0.9-2.5-1.3-3.8-1l-4,0.7c-1.1,0.2-2,0.8-2.5,1.7C11.5,2.7,10.6,2,9.5,1.8l-4-0.7
	c-1.4-0.2-2.8,0.1-3.8,1C0.6,3,0,4.3,0,5.7v11.4c0,2.3,1.6,4.2,3.8,4.6l6.6,1.2C10.9,23,11.5,23,12,23s1.1,0,1.6-0.1l6.6-1.2
	c2.2-0.4,3.8-2.3,3.8-4.6V5.7C24,4.3,23.4,3,22.3,2.1L22.3,2.1z M11.5,22c-0.3,0-0.6-0.1-0.9-0.1L4,20.7c-1.8-0.3-3-1.8-3-3.6V5.7
	c0-1.1,0.5-2.1,1.3-2.8C3,2.3,3.8,2,4.7,2c0.2,0,0.4,0,0.7,0.1l4,0.7c1.3,0.2,2.2,1.3,2.2,2.6V22L11.5,22z M23,17.1
	c0,1.8-1.3,3.3-3,3.6l-6.6,1.2c-0.3,0.1-0.6,0.1-0.9,0.1V5.4c0-1.3,0.9-2.4,2.2-2.6l4-0.7c1.1-0.2,2.2,0.1,3,0.8
	C22.5,3.6,23,4.6,23,5.7L23,17.1L23,17.1z"/>
</svg>
