<?xml version="1.0" encoding="utf-8"?>
<!-- Generator: Adobe Illustrator 24.1.0, SVG Export Plug-In . SVG Version: 6.00 Build 0)  -->
<svg version="1.1" id="Layer_1" xmlns="http://www.w3.org/2000/svg" xmlns:xlink="http://www.w3.org/1999/xlink" x="0px" y="0px"
	 viewBox="0 0 24 24" style="enable-background:new 0 0 24 24;" xml:space="preserve">
<style type="text/css">
	.st0{fill:none;stroke:#000000;stroke-width:0.5;stroke-miterlimit:10;}
</style>
<g>
	<path d="M5.3,4.9v3.8h3.8V4.9H5.3z M8.2,7.8H6.3V5.9h1.9V7.8z M5.3,4.9v3.8h3.8V4.9H5.3z M8.2,7.8H6.3V5.9h1.9V7.8z M5.3,4.9v3.8
		h3.8V4.9H5.3z M8.2,7.8H6.3V5.9h1.9V7.8z M5.3,4.9v3.8h3.8V4.9H5.3z M8.2,7.8H6.3V5.9h1.9V7.8z M5.3,4.9v3.8h3.8V4.9H5.3z M8.2,7.8
		H6.3V5.9h1.9V7.8z M5.3,4.9v3.8h3.8V4.9H5.3z M8.2,7.8H6.3V5.9h1.9V7.8z M3.4,3v7.6h7.6V3H3.4z M10.1,9.7H4.4V4h5.7V9.7z M9.1,4.9
		H5.3v3.8h3.8V4.9z M8.2,7.8H6.3V5.9h1.9V7.8z M5.3,4.9v3.8h3.8V4.9H5.3z M8.2,7.8H6.3V5.9h1.9V7.8z M5.3,4.9v3.8h3.8V4.9H5.3z
		 M8.2,7.8H6.3V5.9h1.9V7.8z M5.3,4.9v3.8h3.8V4.9H5.3z M8.2,7.8H6.3V5.9h1.9V7.8z M5.3,4.9v3.8h3.8V4.9H5.3z M8.2,7.8H6.3V5.9h1.9
		V7.8z M5.3,4.9v3.8h3.8V4.9H5.3z M8.2,7.8H6.3V5.9h1.9V7.8z M14.9,4.9v3.8h3.8V4.9H14.9z M17.7,7.8h-1.9V5.9h1.9V7.8z M14.9,4.9
		v3.8h3.8V4.9H14.9z M17.7,7.8h-1.9V5.9h1.9V7.8z M14.9,4.9v3.8h3.8V4.9H14.9z M17.7,7.8h-1.9V5.9h1.9V7.8z M14.9,4.9v3.8h3.8V4.9
		H14.9z M17.7,7.8h-1.9V5.9h1.9V7.8z M14.9,4.9v3.8h3.8V4.9H14.9z M17.7,7.8h-1.9V5.9h1.9V7.8z M14.9,4.9v3.8h3.8V4.9H14.9z
		 M17.7,7.8h-1.9V5.9h1.9V7.8z M12.9,3v7.6h7.6V3H12.9z M19.6,9.7h-5.7V4h5.7V9.7z M18.7,4.9h-3.8v3.8h3.8V4.9z M17.7,7.8h-1.9V5.9
		h1.9V7.8z M14.9,4.9v3.8h3.8V4.9H14.9z M17.7,7.8h-1.9V5.9h1.9V7.8z M14.9,4.9v3.8h3.8V4.9H14.9z M17.7,7.8h-1.9V5.9h1.9V7.8z
		 M14.9,4.9v3.8h3.8V4.9H14.9z M17.7,7.8h-1.9V5.9h1.9V7.8z M14.9,4.9v3.8h3.8V4.9H14.9z M17.7,7.8h-1.9V5.9h1.9V7.8z M14.9,4.9v3.8
		h3.8V4.9H14.9z M17.7,7.8h-1.9V5.9h1.9V7.8z M5.3,14.4v3.8h3.8v-3.8H5.3z M8.2,17.3H6.3v-1.9h1.9V17.3z M5.3,14.4v3.8h3.8v-3.8H5.3
		z M8.2,17.3H6.3v-1.9h1.9V17.3z M5.3,14.4v3.8h3.8v-3.8H5.3z M8.2,17.3H6.3v-1.9h1.9V17.3z M5.3,14.4v3.8h3.8v-3.8H5.3z M8.2,17.3
		H6.3v-1.9h1.9V17.3z M5.3,14.4v3.8h3.8v-3.8H5.3z M8.2,17.3H6.3v-1.9h1.9V17.3z M5.3,14.4v3.8h3.8v-3.8H5.3z M8.2,17.3H6.3v-1.9
		h1.9V17.3z M11.1,16.4v-3.9H3.4v7.6h7.4v-0.4c0,0-0.5,0.1-1.1,0c-0.6-0.1-0.6-0.5-0.6-0.5c0,0,0,0,0-0.1H4.4v-5.7h5.7v4L11.1,16.4z
		 M9.1,18.2v-3.8H5.3v3.8H9.1z M6.3,15.4h1.9v1.9H6.3V15.4z M5.3,14.4v3.8h3.8v-3.8H5.3z M8.2,17.3H6.3v-1.9h1.9V17.3z M5.3,14.4
		v3.8h3.8v-3.8H5.3z M8.2,17.3H6.3v-1.9h1.9V17.3z M5.3,14.4v3.8h3.8v-3.8H5.3z M8.2,17.3H6.3v-1.9h1.9V17.3z M5.3,14.4v3.8h3.8
		v-3.8H5.3z M8.2,17.3H6.3v-1.9h1.9V17.3z M5.3,14.4v3.8h3.8v-3.8H5.3z M8.2,17.3H6.3v-1.9h1.9V17.3z M5.3,14.4v3.8h3.8v-3.8H5.3z
		 M8.2,17.3H6.3v-1.9h1.9V17.3z M5.3,4.9v3.8h3.8V4.9H5.3z M8.2,7.8H6.3V5.9h1.9V7.8z M14.9,4.9v3.8h3.8V4.9H14.9z M17.7,7.8h-1.9
		V5.9h1.9V7.8z M17.7,12.5v1.9h-1.9v-1.9h-2.9v2.9h1.9v1.9h-0.3l1.2,1.5v-0.5h2.9v-2.9h1.9v-2.9H17.7z M14.9,14.4h-0.9v-1h0.9V14.4z
		 M17.7,17.3h-1.9v-1.9h1.9V17.3z M19.6,14.4h-0.9v-1h0.9V14.4z M3,0.1c-1.3,0-2.4,1.1-2.4,2.4v4.3h0.9V2.5c0-0.8,0.6-1.4,1.4-1.4
		h4.3v-1H3z M3,22c-0.8,0-1.4-0.6-1.4-1.4v-4.3H0.6v4.3C0.6,21.9,1.6,23,3,23h4.3V22H3z M22.5,16.3v4.3c0,0.8-0.6,1.4-1.4,1.4h-4.3
		V23H21c1.3,0,2.4-1.1,2.4-2.4v-4.3H22.5z M21,0.1h-4.3v1H21c0.8,0,1.4,0.6,1.4,1.4v4.3h0.9V2.5C23.4,1.2,22.4,0.1,21,0.1z"/>
	<g id="XMLID_1_">
		<g>
		</g>
		<g>
			<path class="st0" d="M16,19c0,0.1,0,0.3-0.1,0.4c-0.2,0.4-0.5,0.6-0.9,0.6h-0.8v2.7c0,0.7-0.5,1.2-1.2,1.2h-1.1
				c-0.7,0-1.3-0.5-1.3-1.2v-2.7H9.8c-0.4,0-0.7-0.2-0.9-0.6c-0.2-0.4-0.1-0.8,0.2-1l2.3-2.6c0.5-0.5,1.4-0.5,1.9,0l2.3,2.6
				C15.9,18.5,16,18.7,16,19z"/>
		</g>
	</g>
</g>
</svg>
