<?xml version="1.0" encoding="utf-8"?>
<!-- Generator: Adobe Illustrator 24.1.0, SVG Export Plug-In . SVG Version: 6.00 Build 0)  -->
<svg version="1.1" id="Capa_1" xmlns="http://www.w3.org/2000/svg" xmlns:xlink="http://www.w3.org/1999/xlink" x="0px" y="0px"
	 viewBox="0 0 500 500" style="enable-background:new 0 0 500 500;" xml:space="preserve">
<style type="text/css">
	.st0{fill:#51459E;}
	.st1{opacity:0.5;fill:#51459E;enable-background:new    ;}
	.st2{opacity:0.3;fill:#51459E;enable-background:new    ;}
	.st3{fill:#ECEFF1;}
	.st4{opacity:0.5;fill:#CECECE;enable-background:new    ;}
	.st5{fill:#F2CC5B;}
	.st6{fill:#FFFFFF;}
	.st7{fill:none;stroke:#263238;stroke-linecap:round;stroke-linejoin:round;}
	.st8{fill:#263238;}
	.st9{fill:none;stroke:#FFFFFF;stroke-linecap:round;stroke-linejoin:round;}
	.st10{opacity:0.1;enable-background:new    ;}
	.st11{opacity:0.2;fill:none;stroke:#FFFFFF;stroke-linecap:round;stroke-linejoin:round;enable-background:new    ;}
	.st12{fill:#FFFFFF;stroke:#263238;stroke-width:0.9954;stroke-miterlimit:9.9539;}
	.st13{fill:#ECEFF1;stroke:#263238;stroke-miterlimit:10;}
	.st14{fill:none;stroke:#263238;stroke-miterlimit:10;}
	.st15{fill:none;stroke:#FFFFFF;stroke-width:2;stroke-linecap:round;stroke-linejoin:round;}
	.st16{opacity:0.1;fill:#FFFFFF;enable-background:new    ;}
	.st17{fill:#FFFFFF;stroke:#263238;stroke-miterlimit:10;}
	.st18{fill:#51459E;stroke:#263238;stroke-miterlimit:10;}
	.st19{fill:none;stroke:#FFFFFF;stroke-miterlimit:10;}
	.st20{opacity:0.5;fill:#FFFFFF;enable-background:new    ;}
	.st21{opacity:0.68;fill:#51459E;stroke:#263238;stroke-miterlimit:10;}
	.st22{opacity:0.41;fill:#51459E;enable-background:new    ;}
</style>
<g id="freepik--Plants--inject-14">
	<g id="freepik--freepik--Plants--inject-2--inject-14">
		<path class="st0" d="M418.6,339.5c0,0,2.4-2.9,2.5-3.1c1.5-2.4,3-7.8,0.9-10.2c-1.4-1.5-3.7-1.7-5.2-0.3c-0.1,0.1-0.2,0.2-0.3,0.3
			c-1.5,1.6-1.7,4.3-1.4,6.4C415.6,334.9,418.6,339.5,418.6,339.5z"/>
		<path class="st0" d="M442.5,328.2l-0.3-0.2c-2.7-1.6-7.8,0.8-9.9,2.7c-0.2,0.2-2.7,3-2.7,3l0,0c-0.8,0.4-1.6,0.8-2.6,1.2
			c-1.7,0.9-3.7,1.9-5.7,3.1c-2.2,1.3-4.4,2.7-6.4,4.3c-2.3,1.7-4.4,3.6-6.4,5.7l1.5-3.3c0.8-2.7,0.8-8.3-1.8-10.1
			c-1.7-1.1-4-0.6-5.1,1.1l-0.2,0.4c-1.1,1.9-0.5,4.6,0.4,6.5c1,2.2,4.8,5.5,5.1,5.8c-1.9,2.2-3.7,4.5-5.4,6.9
			c-1,1.4-1.9,2.9-2.8,4.3l0.7-1.5c0.8-2.7,0.8-8.3-1.8-10.1c-1.7-1.1-4-0.6-5.1,1.1l-0.2,0.4c-1.1,1.9-0.5,4.6,0.3,6.5
			s4.1,4.9,4.9,5.7l-1,1.7c-1.6,2.7-3.2,5.4-4.9,8c-0.6,0.9-1.2,1.8-1.8,2.7l0.6-1.3c0.8-2.7,0.8-8.4-1.8-10.1
			c-1.7-1.1-4-0.6-5.1,1.1l-0.2,0.3c-1.1,2-0.5,4.6,0.3,6.5s3.8,4.6,4.8,5.5c-0.6,0.9-1.3,1.8-2,2.6c-0.5,0.6-0.9,1.1-1.4,1.7
			s-1,1.1-1.5,1.6c-1,1-2,2-2.9,3c-0.7,0.6-1.3,1.3-2,1.9c0.6-0.9,1.7-2.7,1.8-2.9c1-2.2,1.4-4.7,1.2-7.1c0.1-0.2,0.2-0.5,0.3-0.8
			c0.6-2-0.5-4-2.5-4.6c0,0,0,0,0,0c-0.1,0-0.3-0.1-0.4-0.1c-3.1-0.5-7,3.6-8.3,6.1c-0.1,0.1-0.7,1.8-1.1,2.9c0.1-0.6,0.3-1.3,0.4-2
			c0.3-1.4,0.5-2.7,0.7-4.2c0.1-0.7,0.2-1.4,0.3-2.1s0.1-1.5,0.2-2.2c0.1-1.7,0.2-3.5,0.2-5.3c1.2,0.2,5.4,1,7.4,0.5
			s4.5-1.7,5.4-3.7c0.9-1.8,0.2-4.1-1.7-5c0,0,0,0,0,0c-0.1-0.1-0.2-0.1-0.4-0.1c-3-1-7.5,2.5-9.1,4.7c-0.1,0.1-1.1,1.9-1.6,2.9
			c0-1.1,0-2.1,0-3.2c-0.1-3.1-0.3-6.3-0.5-9.5l-0.2-2.9c0.4,0.1,5.4,1.1,7.7,0.5c2-0.5,4.5-1.7,5.4-3.7c0.9-1.9,0.1-4.1-1.8-4.9
			c0,0,0,0,0,0c-0.3-0.1-0.5-0.2-0.8-0.3c-3-1-7.5,2.5-9.1,4.7c-0.1,0.2-1.5,2.7-1.9,3.4c-0.1-2.1-0.2-4.2-0.2-6.3
			c0-2.8,0.1-5.7,0.4-8.5c0.2,0.1,5.4,1.1,7.8,0.5c2-0.5,4.5-1.7,5.4-3.7c0.9-1.8,0.1-4.1-1.7-5c-0.1-0.1-0.2-0.1-0.4-0.1
			c-3-1-7.5,2.5-9.1,4.7c-0.1,0.2-1.2,2.1-1.7,3l-0.1-0.1c0.4-2.8,1-5.6,1.9-8.3c0.5-1.5,1-2.9,1.6-4.2c1,0.3,5.3,1.6,7.5,1.3
			s4.6-1.1,5.8-3.1c1.1-1.7,0.5-4-1.2-5.1c-0.1-0.1-0.2-0.1-0.3-0.2c-2.9-1.3-7.7,1.6-9.6,3.7c-0.1,0.1-1,1.4-1.7,2.3l0.8-1.8
			c1-2.2,2-4.1,2.9-5.8c0.5-1,1-1.8,1.5-2.6c1.1-0.2,5.4-1,7.2-2.3s3.6-3.2,3.7-5.4c0.2-2-1.3-3.8-3.4-4c-0.1,0-0.3,0-0.4,0
			c-3.1,0.2-6.1,5-6.8,7.7c-0.2,1.3-0.4,2.7-0.5,4c-0.5,0.8-1,1.6-1.5,2.5c-1,1.7-2,3.6-3.1,5.7c-0.4,0.8-0.8,1.6-1.1,2.4
			c-0.7,1.5-1.3,3.1-1.9,4.7c-1,2.7-1.7,5.5-2.2,8.4v0.1c-0.1-0.9-0.6-3.4-0.6-3.6c-0.8-2.7-3.9-7.4-7.1-7.5c-2,0-3.7,1.7-3.7,3.7
			c0,0,0,0,0,0c0,0.1,0,0.3,0,0.4c0.3,2.1,2.2,4.1,4,5.2c2,1.3,7.1,2,7.5,2c-0.4,2.9-0.6,5.8-0.6,8.7c0,1.7,0,3.4,0,5.1
			c-0.1-0.8-0.3-1.5-0.3-1.6c-0.8-2.7-3.9-7.4-7.1-7.5c-2,0-3.7,1.7-3.7,3.7c0,0.1,0,0.3,0,0.4c0.2,2.2,2.1,4.1,3.9,5.2
			s6.1,1.8,7.3,2c0,0.7,0,1.3,0.1,2c0.1,3.2,0.3,6.3,0.3,9.4c0,1.1,0,2.2,0,3.3c-0.1-0.7-0.2-1.3-0.2-1.4c-0.8-2.7-3.9-7.4-7.1-7.5
			c-2,0-3.7,1.6-3.7,3.7c0,0,0,0,0,0c0,0.2,0,0.3,0,0.5c0.2,2.2,2.1,4.1,3.9,5.3s5.7,1.8,7,2c0,1.1-0.1,2.2-0.2,3.3
			c-0.1,0.7-0.1,1.4-0.2,2.2s-0.2,1.4-0.3,2.1c-0.3,1.4-0.5,2.8-0.8,4.1c-0.2,0.9-0.4,1.8-0.6,2.7c0-1.1-0.1-3.2-0.1-3.4
			c-0.4-2.8-2.8-7.9-5.9-8.4c-2-0.3-3.9,1.2-4.2,3.2c0,0.1,0,0.2,0,0.4c-0.1,2.2,1.5,4.4,3,5.8c1.7,1.5,6.4,3,7,3.1
			c-0.3,1.4-0.7,2.9-1,4.2c-1.1,4.6-2.3,8.4-3.1,11c-0.1,0.3-0.2,0.7-0.3,0.9l1.9,0.9c0.1-0.4,0.2-0.8,0.4-1.2
			c0.8-2.7,1.8-6.5,2.9-11.2c0.4-1.5,0.7-3,1-4.7c1.6,0.1,3.2,0,4.7-0.1c0.8,2.2,3.7,5.8,4,6.2c-1.1,1-2.1,2-3.1,2.9
			c-3.5,3.2-6.5,5.7-8.6,7.5c-0.3,0.3-0.6,0.5-0.9,0.7l2.2,1l0.1-0.1c2.1-1.8,5.1-4.4,8.6-7.7c1.1-1,2.3-2.1,3.4-3.3
			c0.5,0.4,4.5,3.2,6.7,3.7c2.1,0.4,4.8,0.4,6.4-1.1c1.6-1.3,1.8-3.6,0.5-5.2c0,0,0,0,0,0c-0.1-0.1-0.2-0.2-0.3-0.3
			c-2.3-2.1-7.8-0.9-10.3,0.5l-2.5,1.8c0.5-0.5,0.9-0.9,1.4-1.4c1-1,1.9-2,2.9-3.1c0.5-0.5,0.9-1.1,1.4-1.6s0.9-1.2,1.4-1.7
			c1.1-1.4,2.1-2.8,3.1-4.3c0.9,0.8,4,3.8,6,4.5s4.7,1.1,6.6-0.1c1.8-1,2.4-3.3,1.3-5c0,0,0,0,0,0l-0.2-0.3c-2-2.5-7.6-2.1-10.2-1.1
			c-0.2,0.1-2,1-2.9,1.5c0.6-0.9,1.2-1.8,1.7-2.7c1.6-2.7,3.2-5.4,4.8-8.2c0.5-0.9,1-1.7,1.5-2.5c0.3,0.3,3.9,3.9,6.1,4.7
			c2,0.7,4.7,1.1,6.5-0.1c1.8-1,2.4-3.3,1.3-5.1c0,0,0,0,0,0c-0.1-0.1-0.1-0.2-0.2-0.3c-2-2.5-7.6-2.1-10.2-1.1
			c-0.2,0.1-2.8,1.4-3.4,1.8c1.1-1.8,2.2-3.7,3.3-5.4c1.5-2.4,3.2-4.7,5-6.9c0.1,0.1,3.9,3.9,6.2,4.7c2,0.7,4.7,1.1,6.6-0.1
			c1.8-1.1,2.3-3.3,1.3-5.1c0,0,0,0,0,0c-0.1-0.1-0.1-0.2-0.2-0.3c-2-2.5-7.6-2.1-10.2-1.1c-0.2,0.1-2.1,1.1-3.1,1.6l-0.1-0.1
			c1.9-2.1,4-4.1,6.2-5.8c1.2-1,2.4-1.9,3.6-2.7c0.6,0.8,3.5,4.3,5.5,5.2s4.5,1.6,6.5,0.6c1.9-0.8,2.7-3,1.8-4.9l-0.2-0.4
			c-1.7-2.7-7.3-2.9-10-2.2c-0.1,0-1.6,0.6-2.7,1c0.6-0.4,1.1-0.7,1.7-1.1c2-1.3,3.9-2.3,5.6-3.2l2.7-1.4c1,0.5,5.1,2.1,7.3,2.1
			s4.7-0.7,6.1-2.5C444.3,331.8,444.1,329.5,442.5,328.2z"/>
		<path class="st0" d="M368.3,315.6c1.6,1.8,6.7,4,6.7,4s0.4-3.8,0.4-4c0-2.8-1.8-8.2-4.9-9.1c-2-0.5-4,0.7-4.5,2.6
			c0,0.1-0.1,0.3-0.1,0.4C365.6,311.7,366.9,314.1,368.3,315.6z"/>
		<path class="st1" d="M442.5,328.2l-0.3-0.2c-2.7-1.6-7.8,0.8-9.9,2.7c-0.2,0.2-2.7,3-2.7,3l0,0c-0.8,0.4-1.6,0.8-2.6,1.2
			c-1.7,0.9-3.7,1.9-5.7,3.1c-2.2,1.3-4.4,2.7-6.4,4.3c-2.3,1.7-4.4,3.6-6.4,5.7l1.5-3.3c0.8-2.7,0.8-8.3-1.8-10.1
			c-1.7-1.1-4-0.6-5.1,1.1l-0.2,0.4c-1.1,1.9-0.5,4.6,0.4,6.5c1,2.2,4.8,5.5,5.1,5.8c-1.9,2.2-3.7,4.5-5.4,6.9
			c-1,1.4-1.9,2.9-2.8,4.3l0.7-1.5c0.8-2.7,0.8-8.3-1.8-10.1c-1.7-1.1-4-0.6-5.1,1.1l-0.2,0.4c-1.1,1.9-0.5,4.6,0.3,6.5
			s4.1,4.9,4.9,5.7l-1,1.7c-1.6,2.7-3.2,5.4-4.9,8c-0.6,0.9-1.2,1.8-1.8,2.7l0.6-1.3c0.8-2.7,0.8-8.4-1.8-10.1
			c-1.7-1.1-4-0.6-5.1,1.1l-0.2,0.3c-1.1,2-0.5,4.6,0.3,6.5s3.8,4.6,4.8,5.5c-0.6,0.9-1.3,1.8-2,2.6c-0.5,0.6-0.9,1.1-1.4,1.7
			s-1,1.1-1.5,1.6c-1,1-2,2-2.9,3c-0.7,0.6-1.3,1.3-2,1.9c0.6-0.9,1.7-2.7,1.8-2.9c1-2.2,1.4-4.7,1.2-7.1c0.1-0.2,0.2-0.5,0.3-0.8
			c0.6-2-0.5-4-2.5-4.6c0,0,0,0,0,0c-0.1,0-0.3-0.1-0.4-0.1c-3.1-0.5-7,3.6-8.3,6.1c-0.1,0.1-0.7,1.8-1.1,2.9c0.1-0.6,0.3-1.3,0.4-2
			c0.3-1.4,0.5-2.7,0.7-4.2c0.1-0.7,0.2-1.4,0.3-2.1s0.1-1.5,0.2-2.2c0.1-1.7,0.2-3.5,0.2-5.3c1.2,0.2,5.4,1,7.4,0.5
			s4.5-1.7,5.4-3.7c0.9-1.8,0.2-4.1-1.7-5c0,0,0,0,0,0c-0.1-0.1-0.2-0.1-0.4-0.1c-3-1-7.5,2.5-9.1,4.7c-0.1,0.1-1.1,1.9-1.6,2.9
			c0-1.1,0-2.1,0-3.2c-0.1-3.1-0.3-6.3-0.5-9.5l-0.2-2.9c0.4,0.1,5.4,1.1,7.7,0.5c2-0.5,4.5-1.7,5.4-3.7c0.9-1.9,0.1-4.1-1.8-4.9
			c0,0,0,0,0,0c-0.3-0.1-0.5-0.2-0.8-0.3c-3-1-7.5,2.5-9.1,4.7c-0.1,0.2-1.5,2.7-1.9,3.4c-0.1-2.1-0.2-4.2-0.2-6.3
			c0-2.8,0.1-5.7,0.4-8.5c0.2,0.1,5.4,1.1,7.8,0.5c2-0.5,4.5-1.7,5.4-3.7c0.9-1.8,0.1-4.1-1.7-5c-0.1-0.1-0.2-0.1-0.4-0.1
			c-3-1-7.5,2.5-9.1,4.7c-0.1,0.2-1.2,2.1-1.7,3l-0.1-0.1c0.4-2.8,1-5.6,1.9-8.3c0.5-1.5,1-2.9,1.6-4.2c1,0.3,5.3,1.6,7.5,1.3
			s4.6-1.1,5.8-3.1c1.1-1.7,0.5-4-1.2-5.1c-0.1-0.1-0.2-0.1-0.3-0.2c-2.9-1.3-7.7,1.6-9.6,3.7c-0.1,0.1-1,1.4-1.7,2.3l0.8-1.8
			c1-2.2,2-4.1,2.9-5.8c0.5-1,1-1.8,1.5-2.6c1.1-0.2,5.4-1,7.2-2.3s3.6-3.2,3.7-5.4c0.2-2-1.3-3.8-3.4-4c-0.1,0-0.3,0-0.4,0
			c-3.1,0.2-6.1,5-6.8,7.7c-0.2,1.3-0.4,2.7-0.5,4c-0.5,0.8-1,1.6-1.5,2.5c-1,1.7-2,3.6-3.1,5.7c-0.4,0.8-0.8,1.6-1.1,2.4
			c-0.7,1.5-1.3,3.1-1.9,4.7c-1,2.7-1.7,5.5-2.2,8.4v0.1c-0.1-0.9-0.6-3.4-0.6-3.6c-0.8-2.7-3.9-7.4-7.1-7.5c-2,0-3.7,1.7-3.7,3.7
			c0,0,0,0,0,0c0,0.1,0,0.3,0,0.4c0.3,2.1,2.2,4.1,4,5.2c2,1.3,7.1,2,7.5,2c-0.4,2.9-0.6,5.8-0.6,8.7c0,1.7,0,3.4,0,5.1
			c-0.1-0.8-0.3-1.5-0.3-1.6c-0.8-2.7-3.9-7.4-7.1-7.5c-2,0-3.7,1.7-3.7,3.7c0,0.1,0,0.3,0,0.4c0.2,2.2,2.1,4.1,3.9,5.2
			s6.1,1.8,7.3,2c0,0.7,0,1.3,0.1,2c0.1,3.2,0.3,6.3,0.3,9.4c0,1.1,0,2.2,0,3.3c-0.1-0.7-0.2-1.3-0.2-1.4c-0.8-2.7-3.9-7.4-7.1-7.5
			c-2,0-3.7,1.6-3.7,3.7c0,0,0,0,0,0c0,0.2,0,0.3,0,0.5c0.2,2.2,2.1,4.1,3.9,5.3s5.7,1.8,7,2c0,1.1-0.1,2.2-0.2,3.3
			c-0.1,0.7-0.1,1.4-0.2,2.2s-0.2,1.4-0.3,2.1c-0.3,1.4-0.5,2.8-0.8,4.1c-0.2,0.9-0.4,1.8-0.6,2.7c0-1.1-0.1-3.2-0.1-3.4
			c-0.4-2.8-2.8-7.9-5.9-8.4c-2-0.3-3.9,1.2-4.2,3.2c0,0.1,0,0.2,0,0.4c-0.1,2.2,1.5,4.4,3,5.8c1.7,1.5,6.4,3,7,3.1
			c-0.3,1.4-0.7,2.9-1,4.2c-1.1,4.6-2.3,8.4-3.1,11c-0.1,0.3-0.2,0.7-0.3,0.9l1.9,0.9c0.1-0.4,0.2-0.8,0.4-1.2
			c0.8-2.7,1.8-6.5,2.9-11.2c0.4-1.5,0.7-3,1-4.7c1.6,0.1,3.2,0,4.7-0.1c0.8,2.2,3.7,5.8,4,6.2c-1.1,1-2.1,2-3.1,2.9
			c-3.5,3.2-6.5,5.7-8.6,7.5c-0.3,0.3-0.6,0.5-0.9,0.7l2.2,1l0.1-0.1c2.1-1.8,5.1-4.4,8.6-7.7c1.1-1,2.3-2.1,3.4-3.3
			c0.5,0.4,4.5,3.2,6.7,3.7c2.1,0.4,4.8,0.4,6.4-1.1c1.6-1.3,1.8-3.6,0.5-5.2c0,0,0,0,0,0c-0.1-0.1-0.2-0.2-0.3-0.3
			c-2.3-2.1-7.8-0.9-10.3,0.5l-2.5,1.8c0.5-0.5,0.9-0.9,1.4-1.4c1-1,1.9-2,2.9-3.1c0.5-0.5,0.9-1.1,1.4-1.6s0.9-1.2,1.4-1.7
			c1.1-1.4,2.1-2.8,3.1-4.3c0.9,0.8,4,3.8,6,4.5s4.7,1.1,6.6-0.1c1.8-1,2.4-3.3,1.3-5c0,0,0,0,0,0l-0.2-0.3c-2-2.5-7.6-2.1-10.2-1.1
			c-0.2,0.1-2,1-2.9,1.5c0.6-0.9,1.2-1.8,1.7-2.7c1.6-2.7,3.2-5.4,4.8-8.2c0.5-0.9,1-1.7,1.5-2.5c0.3,0.3,3.9,3.9,6.1,4.7
			c2,0.7,4.7,1.1,6.5-0.1c1.8-1,2.4-3.3,1.3-5.1c0,0,0,0,0,0c-0.1-0.1-0.1-0.2-0.2-0.3c-2-2.5-7.6-2.1-10.2-1.1
			c-0.2,0.1-2.8,1.4-3.4,1.8c1.1-1.8,2.2-3.7,3.3-5.4c1.5-2.4,3.2-4.7,5-6.9c0.1,0.1,3.9,3.9,6.2,4.7c2,0.7,4.7,1.1,6.6-0.1
			c1.8-1.1,2.3-3.3,1.3-5.1c0,0,0,0,0,0c-0.1-0.1-0.1-0.2-0.2-0.3c-2-2.5-7.6-2.1-10.2-1.1c-0.2,0.1-2.1,1.1-3.1,1.6l-0.1-0.1
			c1.9-2.1,4-4.1,6.2-5.8c1.2-1,2.4-1.9,3.6-2.7c0.6,0.8,3.5,4.3,5.5,5.2s4.5,1.6,6.5,0.6c1.9-0.8,2.7-3,1.8-4.9l-0.2-0.4
			c-1.7-2.7-7.3-2.9-10-2.2c-0.1,0-1.6,0.6-2.7,1c0.6-0.4,1.1-0.7,1.7-1.1c2-1.3,3.9-2.3,5.6-3.2l2.7-1.4c1,0.5,5.1,2.1,7.3,2.1
			s4.7-0.7,6.1-2.5C444.3,331.8,444.1,329.5,442.5,328.2z"/>
		<path class="st2" d="M418.6,339.5c0,0,2.4-2.9,2.5-3.1c1.5-2.4,3-7.8,0.9-10.2c-1.4-1.5-3.7-1.7-5.2-0.3c-0.1,0.1-0.2,0.2-0.3,0.3
			c-1.5,1.6-1.7,4.3-1.4,6.4C415.6,334.9,418.6,339.5,418.6,339.5z"/>
		<path class="st2" d="M368.3,315.6c1.6,1.8,6.7,4,6.7,4s0.4-3.8,0.4-4c0-2.8-1.8-8.2-4.9-9.1c-2-0.5-4,0.7-4.5,2.6
			c0,0.1-0.1,0.3-0.1,0.4C365.6,311.7,366.9,314.1,368.3,315.6z"/>
	</g>
	<g id="freepik--freepik-plants-inject-2--inject-14">
		<path class="st0" d="M130,338.7c0,0-0.4-3.5-0.4-3.7c-0.6-2.5-3.2-7.1-6.2-7.3c-1.9-0.1-3.5,1.3-3.6,3.2c0,0,0,0,0,0
			c0,0.1,0,0.3,0,0.4c0,2,1.7,4,3.3,5.1C125,337.7,130,338.7,130,338.7z"/>
		<path class="st0" d="M138.2,315.5l-0.4,0.1c-2.8,0.8-4.6,5.7-4.7,8.3c0,0.2,0.3,3.8,0.3,3.8l0,0c-0.3,0.8-0.6,1.6-0.9,2.5
			c-0.5,1.7-1.2,3.6-1.7,5.8c-0.6,2.3-1.1,4.6-1.4,7c-0.4,2.6-0.5,5.3-0.4,8l-1.2-3.1c-1.2-2.3-5-6-7.9-5.5c-1.9,0.4-3,2.2-2.7,4.1
			c0,0,0,0,0,0c0,0.1,0.1,0.3,0.1,0.4c0.6,2,2.7,3.4,4.5,4c2.1,0.8,6.8,0.5,7.2,0.4c0.2,2.7,0.5,5.4,1.1,8.1c0.3,1.6,0.7,3.1,1,4.7
			l-0.5-1.4c-1.2-2.3-5-6-7.8-5.5c-1.9,0.4-3.1,2.2-2.7,4.1l0.1,0.4c0.6,2,2.7,3.4,4.5,4s5.9,0.5,7,0.5l0.4,1.8
			c0.7,2.9,1.5,5.7,2.1,8.5c0.2,1,0.4,2,0.6,3l-0.5-1.2c-1.3-2.3-5-6-7.9-5.5c-1.9,0.4-3.1,2.3-2.7,4.1l0.1,0.4
			c0.6,2,2.7,3.4,4.5,4.1s5.5,0.5,6.8,0.5c0.2,1,0.3,2,0.4,3c0.1,0.7,0.2,1.3,0.2,2s0.1,1.4,0.1,2c0,1.3,0.1,2.6,0.1,3.9
			c0,0.9,0,1.7,0,2.5c-0.2-1-0.7-2.9-0.7-3.1c-0.8-2.1-2.2-4-4-5.5c-0.1-0.2-0.2-0.5-0.3-0.7c-0.9-1.7-3-2.3-4.7-1.4
			c-0.1,0.1-0.2,0.1-0.3,0.2c-2.4,1.7-2.3,7-1.4,9.5c0.1,0.1,0.7,1.7,1.2,2.6l-1.1-1.6c-0.7-1-1.5-2.1-2.3-3.2
			c-0.4-0.5-0.8-1.1-1.2-1.6s-0.9-1.1-1.4-1.6c-1.1-1.2-2.2-2.4-3.4-3.6c0.9-0.6,4.2-3,5.2-4.6s1.8-4.1,1.1-6
			c-0.6-1.8-2.6-2.7-4.4-2.1c0,0,0,0,0,0l-0.3,0.1c-2.6,1.3-3.3,6.6-2.9,9.1c0.1,0.1,0.5,2,0.8,3c-0.7-0.7-1.4-1.4-2.2-2.1
			c-2.2-2-4.4-3.9-6.6-5.8l-2-1.8c0.3-0.2,4.3-2.9,5.4-4.8c1-1.7,1.8-4.1,1.1-6c-0.7-1.8-2.7-2.7-4.4-2c0,0,0,0,0,0
			c-0.2,0.1-0.5,0.2-0.7,0.4c-2.6,1.3-3.3,6.6-2.9,9.1c0.1,0.2,0.8,2.8,1,3.5c-1.5-1.3-3-2.6-4.3-4c-1.9-1.8-3.7-3.8-5.4-5.8
			c0.2-0.1,4.3-2.8,5.4-4.8c1-1.7,1.9-4.1,1.1-6c-0.7-1.8-2.6-2.7-4.4-2.1c-0.1,0-0.2,0.1-0.3,0.1c-2.6,1.3-3.3,6.6-2.8,9.1
			c0.1,0.2,0.6,2.1,0.9,3.1l-0.1,0.1c-1.6-2.1-3-4.4-4.2-6.7c-0.7-1.3-1.3-2.6-1.8-3.8c0.8-0.4,4.5-2.5,5.8-4.1s2.3-3.8,1.8-5.8
			c-0.4-1.9-2.3-3-4.2-2.6c-0.1,0-0.2,0.1-0.3,0.1c-2.7,1-4,6.2-3.8,8.8c0.1,0.1,0.3,1.6,0.4,2.6l-0.6-1.7c-0.8-2.1-1.4-4-1.9-5.7
			c-0.3-1-0.5-1.9-0.7-2.7c0.6-0.9,2.9-4.3,3.2-6.3s0.3-4.5-1.1-6c-1.2-1.4-3.4-1.6-4.9-0.4c-0.1,0.1-0.2,0.2-0.3,0.3
			c-1.9,2.2-0.8,7.3,0.6,9.6c0.7,1,1.5,2,2.3,3c0.2,0.8,0.4,1.7,0.7,2.6c0.5,1.7,1,3.7,1.8,5.8c0.3,0.8,0.6,1.5,0.9,2.3
			c0.6,1.5,1.2,2.9,1.9,4.3c1.1,2.4,2.5,4.7,4.1,6.9v0.1c-0.7-0.5-2.7-1.9-2.8-2c-2.3-1.2-7.5-2.3-9.6-0.2c-1.3,1.4-1.3,3.6,0.1,4.9
			c0.1,0.1,0.2,0.2,0.3,0.2c1.6,1.2,4.1,1.2,6,0.8c2.2-0.5,5.9-3.4,6.3-3.6c1.6,2.2,3.4,4.2,5.3,6.2c1.1,1.1,2.3,2.2,3.4,3.4
			c-0.6-0.4-1.2-0.8-1.2-0.8c-2.3-1.2-7.5-2.2-9.6-0.2c-1.4,1.3-1.4,3.5,0,4.9c0,0,0,0,0,0c0.1,0.1,0.2,0.2,0.3,0.3
			c1.6,1.3,4.1,1.3,6,0.9s5.2-2.8,6.1-3.5c0.5,0.4,0.9,0.8,1.4,1.3c2.2,2,4.4,4,6.5,6c0.8,0.7,1.4,1.4,2.1,2.1
			c-0.5-0.4-1-0.7-1.1-0.8c-2.3-1.2-7.5-2.3-9.6-0.2c-1.3,1.3-1.3,3.5,0,4.9c0,0,0,0,0,0c0.1,0.1,0.2,0.2,0.4,0.3
			c1.6,1.3,4.1,1.3,6,0.9s4.9-2.6,5.9-3.4c0.7,0.8,1.4,1.5,2.1,2.3c0.4,0.5,0.9,1,1.3,1.6s0.8,1.1,1.2,1.6c0.7,1.1,1.5,2.1,2.2,3.2
			c0.5,0.7,0.9,1.4,1.4,2.1c-0.7-0.7-2.2-2.1-2.3-2.2c-2.1-1.6-7-3.3-9.4-1.6c-1.5,1.2-1.8,3.3-0.6,4.9c0.1,0.1,0.1,0.2,0.2,0.3
			c1.4,1.5,3.9,1.9,5.8,1.8c2.1-0.2,6.2-2.3,6.7-2.6c0.7,1.2,1.5,2.3,2.1,3.4c2.3,3.8,4,7,5.2,9.3c0.2,0.3,0.3,0.6,0.4,0.8l1.8-0.7
			c-0.1-0.3-0.4-0.7-0.6-1c-1.3-2.3-3.1-5.5-5.5-9.3c-0.8-1.2-1.6-2.4-2.4-3.7c1.1-1,2.1-2.1,3-3.2c2,1,6.2,1.4,6.8,1.4
			c0,1.4-0.1,2.7-0.1,4c-0.2,4.4-0.5,8-0.8,10.6c-0.1,0.4-0.1,0.7-0.1,1.1l2.1-0.8v-0.1c0.2-2.6,0.4-6.3,0.5-10.7
			c0-1.4,0.1-2.9,0-4.5c0.6-0.1,5.1-0.9,6.9-2c1.6-1.1,3.4-2.9,3.5-5c0.2-1.9-1.2-3.6-3.1-3.8c-0.1,0-0.3,0-0.4,0
			c-2.9,0.1-5.7,4.6-6.4,7.1c0,0.2-0.3,1.8-0.4,2.9c0-0.6,0-1.2,0-1.9c0-1.3-0.1-2.6-0.1-4c0-0.7-0.1-1.3-0.2-2s-0.2-1.4-0.2-2.1
			c-0.2-1.6-0.5-3.2-0.9-4.9c1.1,0,5.1-0.1,6.9-1s3.8-2.4,4.3-4.4c0.5-1.8-0.6-3.7-2.5-4.2l-0.4-0.1c-2.9-0.3-6.4,3.6-7.4,6
			c-0.1,0.1-0.6,1.9-0.9,2.9c-0.2-1-0.4-1.9-0.7-2.9c-0.7-2.8-1.5-5.7-2.3-8.5c-0.2-0.9-0.5-1.7-0.7-2.6c0.4,0,5.1-0.1,7.1-1
			c1.8-0.8,3.8-2.4,4.3-4.4c0.5-1.9-0.6-3.7-2.5-4.2l-0.3-0.1c-2.9-0.3-6.4,3.6-7.4,6c-0.1,0.2-0.9,2.7-1,3.4
			c-0.5-1.9-1-3.8-1.4-5.8c-0.6-2.6-1-5.2-1.2-7.8c0.2,0,5.1,0,7.2-1c1.8-0.8,3.8-2.4,4.2-4.4c0.5-1.9-0.7-3.7-2.5-4.2
			c-0.1,0-0.2-0.1-0.4-0.1c-2.9-0.3-6.4,3.6-7.4,6c-0.1,0.2-0.7,2.1-1,3.1h-0.2c-0.2-2.6-0.1-5.3,0.2-7.9c0.1-1.5,0.4-2.8,0.6-4.2
			c0.9,0.1,5.1,0.5,7.1-0.2s4-1.9,4.7-3.9c0.7-1.8-0.2-3.8-2-4.4l-0.4-0.1c-2.9-0.6-6.7,2.9-8.1,5.2c-0.1,0.1-0.6,1.4-1.1,2.4
			c0.1-0.6,0.2-1.2,0.4-1.8c0.5-2.2,1-4.1,1.6-5.8c0.3-1,0.6-1.9,0.9-2.7c1-0.4,4.8-2,6.1-3.4s2.7-3.6,2.3-5.7
			C141.7,316.8,140.1,315.4,138.2,315.5z"/>
		<path class="st0" d="M81.2,356.3c2.3,0.1,7-1.9,7-1.9s-2.2-2.7-2.4-2.9c-1.9-1.8-6.6-4.1-9.2-2.7c-1.7,1-2.2,3.1-1.2,4.8
			c0.1,0.1,0.1,0.2,0.2,0.3C76.8,355.6,79.3,356.2,81.2,356.3z"/>
		<path class="st1" d="M138.2,315.5l-0.4,0.1c-2.8,0.8-4.6,5.7-4.7,8.3c0,0.2,0.3,3.8,0.3,3.8l0,0c-0.3,0.8-0.6,1.6-0.9,2.5
			c-0.5,1.7-1.2,3.6-1.7,5.8c-0.6,2.3-1.1,4.6-1.4,7c-0.4,2.6-0.5,5.3-0.4,8l-1.2-3.1c-1.2-2.3-5-6-7.9-5.5c-1.9,0.4-3,2.2-2.7,4.1
			c0,0,0,0,0,0c0,0.1,0.1,0.3,0.1,0.4c0.6,2,2.7,3.4,4.5,4c2.1,0.8,6.8,0.5,7.2,0.4c0.2,2.7,0.5,5.4,1.1,8.1c0.3,1.6,0.7,3.1,1,4.7
			l-0.5-1.4c-1.2-2.3-5-6-7.8-5.5c-1.9,0.4-3.1,2.2-2.7,4.1l0.1,0.4c0.6,2,2.7,3.4,4.5,4s5.9,0.5,7,0.5l0.4,1.8
			c0.7,2.9,1.5,5.7,2.1,8.5c0.2,1,0.4,2,0.6,3l-0.5-1.2c-1.3-2.3-5-6-7.9-5.5c-1.9,0.4-3.1,2.3-2.7,4.1l0.1,0.4
			c0.6,2,2.7,3.4,4.5,4.1s5.5,0.5,6.8,0.5c0.2,1,0.3,2,0.4,3c0.1,0.7,0.2,1.3,0.2,2s0.1,1.4,0.1,2c0,1.3,0.1,2.6,0.1,3.9
			c0,0.9,0,1.7,0,2.5c-0.2-1-0.7-2.9-0.7-3.1c-0.8-2.1-2.2-4-4-5.5c-0.1-0.2-0.2-0.5-0.3-0.7c-0.9-1.7-3-2.3-4.7-1.4
			c-0.1,0.1-0.2,0.1-0.3,0.2c-2.4,1.7-2.3,7-1.4,9.5c0.1,0.1,0.7,1.7,1.2,2.6l-1.1-1.6c-0.7-1-1.5-2.1-2.3-3.2
			c-0.4-0.5-0.8-1.1-1.2-1.6s-0.9-1.1-1.4-1.6c-1.1-1.2-2.2-2.4-3.4-3.6c0.9-0.6,4.2-3,5.2-4.6s1.8-4.1,1.1-6
			c-0.6-1.8-2.6-2.7-4.4-2.1c0,0,0,0,0,0l-0.3,0.1c-2.6,1.3-3.3,6.6-2.9,9.1c0.1,0.1,0.5,2,0.8,3c-0.7-0.7-1.4-1.4-2.2-2.1
			c-2.2-2-4.4-3.9-6.6-5.8l-2-1.8c0.3-0.2,4.3-2.9,5.4-4.8c1-1.7,1.8-4.1,1.1-6c-0.7-1.8-2.7-2.7-4.4-2c0,0,0,0,0,0
			c-0.2,0.1-0.5,0.2-0.7,0.4c-2.6,1.3-3.3,6.6-2.9,9.1c0.1,0.2,0.8,2.8,1,3.5c-1.5-1.3-3-2.6-4.3-4c-1.9-1.8-3.7-3.8-5.4-5.8
			c0.2-0.1,4.3-2.8,5.4-4.8c1-1.7,1.9-4.1,1.1-6c-0.7-1.8-2.6-2.7-4.4-2.1c-0.1,0-0.2,0.1-0.3,0.1c-2.6,1.3-3.3,6.6-2.8,9.1
			c0.1,0.2,0.6,2.1,0.9,3.1l-0.1,0.1c-1.6-2.1-3-4.4-4.2-6.7c-0.7-1.3-1.3-2.6-1.8-3.8c0.8-0.4,4.5-2.5,5.8-4.1s2.3-3.8,1.8-5.8
			c-0.4-1.9-2.3-3-4.2-2.6c-0.1,0-0.2,0.1-0.3,0.1c-2.7,1-4,6.2-3.8,8.8c0.1,0.1,0.3,1.6,0.4,2.6l-0.6-1.7c-0.8-2.1-1.4-4-1.9-5.7
			c-0.3-1-0.5-1.9-0.7-2.7c0.6-0.9,2.9-4.3,3.2-6.3s0.3-4.5-1.1-6c-1.2-1.4-3.4-1.6-4.9-0.4c-0.1,0.1-0.2,0.2-0.3,0.3
			c-1.9,2.2-0.8,7.3,0.6,9.6c0.7,1,1.5,2,2.3,3c0.2,0.8,0.4,1.7,0.7,2.6c0.5,1.7,1,3.7,1.8,5.8c0.3,0.8,0.6,1.5,0.9,2.3
			c0.6,1.5,1.2,2.9,1.9,4.3c1.1,2.4,2.5,4.7,4.1,6.9v0.1c-0.7-0.5-2.7-1.9-2.8-2c-2.3-1.2-7.5-2.3-9.6-0.2c-1.3,1.4-1.3,3.6,0.1,4.9
			c0.1,0.1,0.2,0.2,0.3,0.2c1.6,1.2,4.1,1.2,6,0.8c2.2-0.5,5.9-3.4,6.3-3.6c1.6,2.2,3.4,4.2,5.3,6.2c1.1,1.1,2.3,2.2,3.4,3.4
			c-0.6-0.4-1.2-0.8-1.2-0.8c-2.3-1.2-7.5-2.2-9.6-0.2c-1.4,1.3-1.4,3.5,0,4.9c0,0,0,0,0,0c0.1,0.1,0.2,0.2,0.3,0.3
			c1.6,1.3,4.1,1.3,6,0.9s5.2-2.8,6.1-3.5c0.5,0.4,0.9,0.8,1.4,1.3c2.2,2,4.4,4,6.5,6c0.8,0.7,1.4,1.4,2.1,2.1
			c-0.5-0.4-1-0.7-1.1-0.8c-2.3-1.2-7.5-2.3-9.6-0.2c-1.3,1.3-1.3,3.5,0,4.9c0,0,0,0,0,0c0.1,0.1,0.2,0.2,0.4,0.3
			c1.6,1.3,4.1,1.3,6,0.9s4.9-2.6,5.9-3.4c0.7,0.8,1.4,1.5,2.1,2.3c0.4,0.5,0.9,1,1.3,1.6s0.8,1.1,1.2,1.6c0.7,1.1,1.5,2.1,2.2,3.2
			c0.5,0.7,0.9,1.4,1.4,2.1c-0.7-0.7-2.2-2.1-2.3-2.2c-2.1-1.6-7-3.3-9.4-1.6c-1.5,1.2-1.8,3.3-0.6,4.9c0.1,0.1,0.1,0.2,0.2,0.3
			c1.4,1.5,3.9,1.9,5.8,1.8c2.1-0.2,6.2-2.3,6.7-2.6c0.7,1.2,1.5,2.3,2.1,3.4c2.3,3.8,4,7,5.2,9.3c0.2,0.3,0.3,0.6,0.4,0.8l1.8-0.7
			c-0.1-0.3-0.4-0.7-0.6-1c-1.3-2.3-3.1-5.5-5.5-9.3c-0.8-1.2-1.6-2.4-2.4-3.7c1.1-1,2.1-2.1,3-3.2c2,1,6.2,1.4,6.8,1.4
			c0,1.4-0.1,2.7-0.1,4c-0.2,4.4-0.5,8-0.8,10.6c-0.1,0.4-0.1,0.7-0.1,1.1l2.1-0.8v-0.1c0.2-2.6,0.4-6.3,0.5-10.7
			c0-1.4,0.1-2.9,0-4.5c0.6-0.1,5.1-0.9,6.9-2c1.6-1.1,3.4-2.9,3.5-5c0.2-1.9-1.2-3.6-3.1-3.8c-0.1,0-0.3,0-0.4,0
			c-2.9,0.1-5.7,4.6-6.4,7.1c0,0.2-0.3,1.8-0.4,2.9c0-0.6,0-1.2,0-1.9c0-1.3-0.1-2.6-0.1-4c0-0.7-0.1-1.3-0.2-2s-0.2-1.4-0.2-2.1
			c-0.2-1.6-0.5-3.2-0.9-4.9c1.1,0,5.1-0.1,6.9-1s3.8-2.4,4.3-4.4c0.5-1.8-0.6-3.7-2.5-4.2l-0.4-0.1c-2.9-0.3-6.4,3.6-7.4,6
			c-0.1,0.1-0.6,1.9-0.9,2.9c-0.2-1-0.4-1.9-0.7-2.9c-0.7-2.8-1.5-5.7-2.3-8.5c-0.2-0.9-0.5-1.7-0.7-2.6c0.4,0,5.1-0.1,7.1-1
			c1.8-0.8,3.8-2.4,4.3-4.4c0.5-1.9-0.6-3.7-2.5-4.2l-0.3-0.1c-2.9-0.3-6.4,3.6-7.4,6c-0.1,0.2-0.9,2.7-1,3.4
			c-0.5-1.9-1-3.8-1.4-5.8c-0.6-2.6-1-5.2-1.2-7.8c0.2,0,5.1,0,7.2-1c1.8-0.8,3.8-2.4,4.2-4.4c0.5-1.9-0.7-3.7-2.5-4.2
			c-0.1,0-0.2-0.1-0.4-0.1c-2.9-0.3-6.4,3.6-7.4,6c-0.1,0.2-0.7,2.1-1,3.1h-0.2c-0.2-2.6-0.1-5.3,0.2-7.9c0.1-1.5,0.4-2.8,0.6-4.2
			c0.9,0.1,5.1,0.5,7.1-0.2s4-1.9,4.7-3.9c0.7-1.8-0.2-3.8-2-4.4l-0.4-0.1c-2.9-0.6-6.7,2.9-8.1,5.2c-0.1,0.1-0.6,1.4-1.1,2.4
			c0.1-0.6,0.2-1.2,0.4-1.8c0.5-2.2,1-4.1,1.6-5.8c0.3-1,0.6-1.9,0.9-2.7c1-0.4,4.8-2,6.1-3.4s2.7-3.6,2.3-5.7
			C141.7,316.8,140.1,315.4,138.2,315.5z"/>
		<path class="st2" d="M130,338.7c0,0-0.4-3.5-0.4-3.7c-0.6-2.5-3.2-7.1-6.2-7.3c-1.9-0.1-3.5,1.3-3.6,3.2c0,0,0,0,0,0
			c0,0.1,0,0.3,0,0.4c0,2,1.7,4,3.3,5.1C125,337.7,130,338.7,130,338.7z"/>
		<path class="st2" d="M81.2,356.3c2.3,0.1,7-1.9,7-1.9s-2.2-2.7-2.4-2.9c-1.9-1.8-6.6-4.1-9.2-2.7c-1.7,1-2.2,3.1-1.2,4.8
			c0.1,0.1,0.1,0.2,0.2,0.3C76.8,355.6,79.3,356.2,81.2,356.3z"/>
	</g>
</g>
<g id="freepik--Shadow--inject-14">
	<ellipse class="st3" cx="250" cy="412.7" rx="172.1" ry="23"/>
	<ellipse class="st4" cx="250" cy="412.7" rx="172.1" ry="23"/>
</g>
<g id="freepik--character-2--inject-14">
	<path class="st5" d="M448.5,195.6c0,0-6.1,28.2-14.1,41.5l-9.2-3.2l-4.6,3.8L401.2,254c0,0-29.3-9.8-34.8-19.3s2.1-22.1,2.1-22.1
		l19.1-46.1l0.2-0.1l8.2-4.4c0,0,1.5-0.2,3.8-0.4c0.8-0.1,1.6-0.1,2.6-0.1c4.6-0.2,10.6-0.1,14.6,1.4c4.1,1.6,8.5,2.2,12.9,1.7
		c0,0,8.2,11,13.3,18.7S448.5,195.6,448.5,195.6z"/>
	<path class="st6" d="M341.2,284.1c0,0-6.6,17.5-7.6,27.8s11.8,28.1,11.8,28.1s-6.2,11.1-4.1,14.5s8-5.2,10.9-16.6s-2.3-27-2.3-27
		s8.5-12,8.9-17.3S341.2,284.1,341.2,284.1z"/>
	<path class="st7" d="M341.4,284.1c0,0-6.7,17.5-7.8,27.8s12,28.1,12,28.1s-6.3,11.1-4.2,14.5s8.2-5.2,11.1-16.6s-2.3-27-2.3-27
		s8.6-12,9.1-17.3S341.4,284.1,341.4,284.1z"/>
	<path class="st8" d="M343.6,342.5c0,0-1.7-3.1-0.7-4s4.7,1.3,5.2,2.8s3.4-1,3.4-1l1.6-5.9c0.8,1.8,1.4,3.6,1.8,5.5
		c0.1,1.7-3,4.9-3.4,8.9c-0.5,4.7-6.2,9.4-9.6,8.9S340.4,347.3,343.6,342.5z"/>
	<path class="st9" d="M353.9,339.3c-1.9,2.7-3.4,5.6-4.7,8.7c-0.9,1.9-1.2,4-2.8,5.4c-1.5,1.2-3.3,2-5.1,2.4"/>
	<path class="st10" d="M420.6,237.7L401.2,254c0,0-29.3-9.8-34.8-19.3s2.1-22.1,2.1-22.1l19.1-46.1l0.2-0.1c4-1.1,8-3.4,12-4.7
		c0.9-0.3,1.8-0.6,2.7-0.8c0,0.2-0.1,0.4-0.1,0.6c-3.4,19.3,0.4,39.2,10.9,55.8c2.1,3.3,2.9,7.2,4.5,10.8c1.1,2.2,1.9,4.5,2.5,6.8
		C420.5,235.8,420.6,236.7,420.6,237.7z"/>
	<path class="st6" d="M419.4,170.2c0,0,0.6,3.9,6.3,4.7c3.4,0.4,6.8-0.9,9-3.6c-0.6-3.4-0.5-6.9,0.1-10.3c1-5.4,2.7-7.1,2.7-7.1
		s6.7,0.1,7.1-5.2s-6.2-8.1-8.3-5.9s-5-5.9-5-5.9l-7.7-4.4l-5.6-5l-4.4,4.2c0,0-1.4,5-1.8,7.4s-2,6.6-2,8.7s0.6,13.6,1.9,17.2
		s4.7,4.6,6.2,4.4S419.4,170.2,419.4,170.2z"/>
	<path class="st6" d="M359.5,397c-0.7-3.6-0.1-7.8,1.5-12.1c2.9-7.6,5.4-57.3,12.6-63c4.7-3.7,16.2,1.3,16.2,1.3
		c0.4,5.8,0.4,11.6,0,17.4c-0.6,10.8-20.2,46.2-20.4,49.4c0.1,1,0.5,1.9,1.1,2.7L359.5,397z"/>
	<path class="st7" d="M359.5,397c-0.7-3.6-0.1-7.8,1.5-12.1c2.9-7.6,5.4-57.3,12.6-63c4.7-3.7,16.2,1.3,16.2,1.3
		c0.4,5.8,0.4,11.6,0,17.4c-0.6,10.8-20.2,46.2-20.4,49.4c0.1,1,0.5,1.9,1.1,2.7L359.5,397z"/>
	<path class="st8" d="M359.9,388.6c0,0-2.5,7.5-2.1,11.8s3.5,2,9.6,9s11.6,7.8,13.6,6.4s0.8-5-5.4-15.4s-3.9-5.9-3.9-5.9
		s1.3-4.4-1.1-5c-3.5-0.9-5.5,4.1-7.7,4.1S359.9,388.6,359.9,388.6z"/>
	<path class="st9" d="M358.5,398.3c0.5,0.8,1.2,1.5,2,2c1.5,1.1,3.2,1.8,4.8,2.8c1.9,1.4,3.7,3,5.2,4.8c1.2,1.2,2.4,2.3,3.6,3.4
		c1,0.9,2.1,1.6,3.3,2.1c1.2,0.5,2.6,0.4,3.8-0.3"/>
	<path class="st7" d="M419.4,126.3c-2.7,2.2-5.7,4.6-6.8,8.1s-0.8,7.3-2.2,10.6c-1,2.3-0.6,5.6-0.4,8.1c0.2,3.8,0.8,7.7,1.5,11.4
		c0.6,2.8,1.8,4.6,4.7,4.9s6.1-1.2,8.6-2.5c4.1-2.1,8.9-8.8,11.3-12.8c3.2-0.8,9.3-0.4,8.2-6.5s-5.7-3.1-7-1.4"/>
	<path class="st7" d="M421.3,144c1.6-1.7,3.2-1.2,5.1,0"/>
	<path class="st7" d="M417.3,145.1c0.4,2.4-0.2,4.9-1.6,6.8c-0.5,0.5-0.8,1.1-1,1.7c0,0.8,0.4,1.5,1,1.9"/>
	<path class="st7" d="M417.1,159.8c2.4,0.2,3.8-0.4,5.1-2.2"/>
	<path class="st8" d="M423.8,148.5c-0.1,0.9-0.5,1.5-0.9,1.5s-0.7-0.8-0.6-1.6s0.5-1.5,0.9-1.5S423.9,147.6,423.8,148.5z"/>
	<path class="st8" d="M414.6,147.3c-0.1,0.9-0.5,1.5-0.9,1.5s-0.7-0.8-0.6-1.6s0.5-1.5,0.9-1.5S414.7,146.4,414.6,147.3z"/>
	<path class="st7" d="M412.1,142.7c0.8-0.7,2.1-0.7,2.8,0.2c0,0,0.1,0.1,0.1,0.1"/>
	<path class="st7" d="M436.2,154.1c-0.9,3.1-1.5,6.3-1.8,9.6c-0.4,2.5-0.3,5.1,0.3,7.5c-1.5,2.5-5.5,3.9-8.4,3.7
		c-1.7-0.1-3.3-0.6-4.6-1.6c-1.4-1-2.2-2.5-2.3-4.2"/>
	<path class="st8" d="M366,231.8c0,0,17.6,17.9,36.6,21c0,0,5.4,9.5,2.7,18.7s-13,48.9-13,48.9l-19.4-2.3v-48.4
		c0,0-6.5,16.5-12.4,24.5l-19.2-10C341.2,284.1,347.7,246.7,366,231.8z"/>
	<polyline class="st9" points="366.4,255.7 372.3,262.4 372.9,269.6 	"/>
	<path class="st8" d="M369.7,307.5c0,0-1.1,6.1,1.3,15.7c0,0,13.5,3.6,21.8,1.1c0,0,4-8.5,4.6-11.9
		C397.4,312.4,384.1,304.6,369.7,307.5z"/>
	<path class="st8" d="M337.9,288.1c0,0,9.1,7.2,20.5,9.3c0,0,5.8-4,8-6.8c0,0-12.4-12.5-27-12.5L337.9,288.1z"/>
	<path class="st7" d="M421.7,206.1c0,0,2.9-11.2,12.7-13.8"/>
	<path class="st8" d="M437.7,145.7c-0.9,0.7-0.6,2.3-1.3,3.2c-0.6,0.8-1.6,1.4-2.6,1.5c-0.1,0-0.2,0-0.3,0c-0.1-0.1-0.1-0.2-0.1-0.3
		c-0.2-1.5-0.2-3,0-4.5c0-2.5-1-3.7-2.7-5.3c-1.3-1.2-1.3-3.4-2.5-4.8c-1-0.9-2.3-1.3-3.6-1.3c-1.3,0.1-2.6,0-3.9-0.2
		c-2.4-0.6-4.3-2.5-4.7-5c-2,1.6-3.7,7-3.7,7L411,135c-3-3.1-3.6-7.7-1.5-11.5c2.3-3.7,6.6-5.7,10.9-5.1c2.8,0.4,5.4,1.8,8.2,2
		c3.4,0.3,7-1.1,10.3,0s5.3,4.4,6.3,7.7c1,3.3,1.1,6.8,2.2,10.1c0.4,1.1,0.7,2.2,0.9,3.3c0.3,2.7-1.1,5.3-3.5,6.6
		C444.8,148.1,443.8,140.9,437.7,145.7z"/>
	<path class="st11" d="M412.2,131.9c-1.3-1.9-1.6-4.4-0.8-6.6c0.9-2.2,3.1-3.6,5.4-3.5c2.3,0.2,4.2,1.9,5.7,3.7s2.7,3.8,4.7,5.1
		c2.1,1.4,4.8,1.8,7,2.9c3.6,1.9,5.8,5.7,5.7,9.8"/>
	<path class="st11" d="M426.5,124c1,1.8,3,2.8,5,3.3c2,0.4,4,1,5.9,1.8c2.9,1.6,4.6,4.6,4.6,7.8"/>
	<path class="st12" d="M219.9,277.4l74.2-179.6c1.6-3.8,5.9-5.5,9.6-4l97.5,40.3c3.8,1.6,5.5,5.9,4,9.6l-74.2,179.6
		c-1.6,3.8-5.9,5.5-9.6,4L223.9,287C220.1,285.5,218.4,281.1,219.9,277.4z"/>
	<path class="st3" d="M380.2,147.9l-3.6,8.6c-1.1,2.6-4.1,3.8-6.6,2.8l-58.8-24.4c-2.1-0.9-3.4-3-3.1-5.3c0.1-0.5,0.2-0.9,0.4-1.4
		l3.6-8.6c1.1-2.6,4.1-3.8,6.7-2.8c0,0,0,0,0,0l58.8,24.4C380,142.3,381.2,145.3,380.2,147.9C380.2,147.9,380.2,147.9,380.2,147.9z"
		/>
	<path class="st8" d="M338.3,131.1l-3,7.2l-1.3-0.6l1.3-3.1l-3.7-1.5l-1.3,3.1l-1.3-0.6l3-7.2l1.3,0.6l-1.2,3l3.7,1.5l1.2-3
		L338.3,131.1z"/>
	<path class="st8" d="M343.2,138.8l-4.3-1.8c-0.1,0.9,0.4,1.7,1.2,2c0.6,0.2,1.2,0.2,1.7,0l0.4,1.1c-1.7,0.7-3.6-0.1-4.3-1.8
		c-0.3-0.7-0.3-1.5-0.1-2.3c0.6-1.5,2.3-2.3,3.8-1.7c0.1,0,0.1,0.1,0.2,0.1c1.5,0.5,2.3,2.2,1.7,3.7c0,0.1-0.1,0.2-0.1,0.3
		L343.2,138.8z M339.2,136.2l3.1,1.3c0.3-0.8-0.2-1.7-1-2C340.5,135.1,339.6,135.4,339.2,136.2z"/>
	<path class="st8" d="M346.6,134.1l1.3,0.5l-3.2,7.6l-1.3-0.5L346.6,134.1z"/>
	<path class="st8" d="M349.6,135.3l1.3,0.5l-3.1,7.6l-1.3-0.5L349.6,135.3z"/>
	<path class="st8" d="M350.1,141.2c0.6-1.6,2.4-2.5,4.1-1.9c1.6,0.6,2.5,2.4,1.9,4.1c-0.6,1.6-2.4,2.5-4.1,1.9c0,0-0.1,0-0.1-0.1
		c-1.6-0.6-2.4-2.3-1.8-3.8C350,141.3,350,141.2,350.1,141.2z M354.6,143.1c0.4-0.9,0-1.9-0.9-2.3c-0.9-0.4-1.9,0-2.3,0.9
		c0,0,0,0,0,0.1c-0.4,0.9,0,1.9,0.9,2.3C353.1,144.4,354.2,144,354.6,143.1C354.6,143.1,354.6,143.1,354.6,143.1z"/>
	<path class="st8" d="M356.1,146c0.2-0.4,0.7-0.6,1.1-0.5c0,0,0,0,0,0c0.4,0.2,0.7,0.6,0.5,1.1c0,0,0,0,0,0
		c-0.2,0.4-0.8,0.6-1.2,0.4C356.1,146.9,355.9,146.4,356.1,146L356.1,146z M358.8,139.6l1.5,0.6l-2.3,4.7l-1-0.4L358.8,139.6z"/>
	
		<rect x="324.5" y="140.5" transform="matrix(0.3833 -0.9236 0.9236 0.3833 34.54 413.5424)" class="st8" width="4.9" height="80.9"/>
	
		<rect x="319.7" y="152.1" transform="matrix(0.3833 -0.9236 0.9236 0.3833 20.7916 416.2589)" class="st8" width="4.9" height="80.9"/>
	
		<rect x="314.8" y="163.8" transform="matrix(0.3833 -0.9236 0.9236 0.3833 7.0387 418.9702)" class="st8" width="4.9" height="80.9"/>
	
		<rect x="310" y="175.4" transform="matrix(0.3833 -0.9236 0.9236 0.3833 -6.7097 421.6867)" class="st8" width="4.9" height="80.9"/>
	
		<rect x="305.1" y="187.1" transform="matrix(0.3833 -0.9236 0.9236 0.3833 -20.4652 424.4203)" class="st8" width="4.9" height="80.9"/>
	
		<rect x="300.3" y="198.7" transform="matrix(0.3833 -0.9236 0.9236 0.3833 -34.2027 427.1346)" class="st8" width="4.9" height="80.9"/>
	<path class="st13" d="M353.2,274.3l-20.4,49.2c-1.6,3.8-5.9,5.6-9.7,4L253,298.3c4.3-5.3,10.3-9,16.9-10.5
		c10.3-2.3,22,0.5,30.8-5.3c7.1-4.6,10.6-14,18.4-17.3c3.9-1.7,8.4-1.6,12.6-0.8C339.4,266.1,346.8,269.5,353.2,274.3z"/>
	<path class="st13" d="M306.6,112.5c-2.7,2-4.5,5-6,8c-3.5,7.1-5.8,14.7-9.3,21.8s-8.6,13.8-15.8,17.1c-2,0.9-4.1,1.5-6.3,1.8
		L296,96.8c1.6-3.8,5.9-5.6,9.7-4c0,0,0,0,0,0l17.1,7.1C321.4,106,312,108.6,306.6,112.5z"/>
	<path class="st10" d="M380.2,147.9l-3.6,8.6c-1.1,2.6-4.1,3.8-6.6,2.8l-58.8-24.4c-2.1-0.9-3.4-3-3.1-5.3c3.1,0,6.9,2.6,9.4,3.6
		c4.1,1.7,8.2,3.3,12.4,4.7c13.1,4.6,27.5,8.3,40.7,4.2c1.6-0.5,3.1-1.1,4.5-1.9l2.4,1C380,142.4,381.2,145.3,380.2,147.9z"/>
	<path class="st14" d="M380.2,147.9l-3.6,8.6c-1.1,2.6-4.1,3.8-6.6,2.8l-58.8-24.4c-2.1-0.9-3.4-3-3.1-5.3c0.1-0.5,0.2-0.9,0.4-1.4
		l3.6-8.6c1.1-2.6,4.1-3.8,6.7-2.8c0,0,0,0,0,0l58.8,24.4C380,142.3,381.2,145.3,380.2,147.9C380.2,147.9,380.2,147.9,380.2,147.9z"
		/>
	<path class="st6" d="M426.5,235.4c0,0-14.7,10.9-19.5,14.4c0,0-23.6-15.1-31.9-22.9s-12-10.6-12.5-19.4c0,0-12.4,1.3-13.7-1.4
		c1.6-0.9,3.4-1.4,5.3-1.5c0,0-5.8-1.7-5.8-3.8l11.6-0.6c0,0-13-1.9-12.9-3.1s16-3.1,20.3,0c0,0,5.1,9,7.2,15.1
		c0,0,15.9,14.3,32.4,17.5l6-6.4L426.5,235.4z"/>
	<path class="st7" d="M413,223.3l-6,6.4c0,0-21-5.5-32.4-17.5c0,0-4.8-12-7.2-15.1s-21.3-1.4-20.3,0s11.6,3.6,11.6,3.6"/>
	<path class="st7" d="M426.5,234.9c0,0-9.9,9.6-19.5,15c0,0-24.4-13.7-36.4-27.6l-1.1-0.8c-4.6-3.1-7.2-8.4-6.9-14l0,0
		c-4.3,1.3-9,1.1-13.1-0.8c-0.3-0.1-0.6-0.3-0.6-0.6c0-0.2,0.2-0.4,0.4-0.5c1.4-0.9,3.3-1,4.9-1c3-0.1,5.8-1,8.8-0.4"/>
	<path class="st7" d="M363.9,200.7l-4-0.1l-10.8-0.2c-0.3,0-0.7,0.1-0.7,0.4c0,0.1,0.1,0.3,0.2,0.4c0.9,1,2,1.7,3.1,2.3
		c0.6,0.4,1.3,0.7,2,1"/>
	<path class="st9" d="M397.4,252.8c0,0-2.6,15.9,7.9,18.7"/>
	<path class="st9" d="M374.7,307.2c0,0,9.8-0.7,17.5,3.2"/>
	<path class="st9" d="M362.4,287.2c-1.8-1.3-3.6-2.6-5.6-3.7"/>
	<path class="st7" d="M400,161.4c3.6-0.4,7.3-0.2,10.9,0.5"/>
	<path class="st7" d="M434.4,169.5c0,0,11.3,14.8,14.1,26.1c0,0-4.7,27-14.1,41.5c0,0-11.7-0.3-23-16.7c4.6-7.4,9.9-14.3,15.8-20.7"
		/>
	<line class="st7" x1="402.7" y1="252.8" x2="406.1" y2="249.8"/>
	<path class="st8" d="M419.7,169.7c1.7,2,4.4,2.8,6.9,2.1c4.2-1.3,7.8-14.8,7.8-14.8S427.4,167.1,419.7,169.7z"/>
</g>
<g id="freepik--Device--inject-14">
	<path class="st8" d="M320,147.4v248.7c0,5.6-4.5,10.1-10.1,10.1H186c-5.6,0-10.1-4.5-10.1-10.1c0,0,0,0,0,0V147.4
		c0-5.6,4.5-10.1,10.1-10.1h124C315.5,137.3,320,141.9,320,147.4z"/>
	<path class="st8" d="M324.2,147.4v248.7c0,5.6-4.5,10.1-10.1,10.1h-124c-5.6,0-10.1-4.6-10.1-10.1V147.4c0-5.6,4.5-10.1,10.1-10.1
		h124C319.7,137.3,324.2,141.8,324.2,147.4z"/>
	<line class="st15" x1="231.8" y1="148.4" x2="265.3" y2="148.4"/>
	<path class="st16" d="M320,147.4v248.7c0,5.6-4.5,10.1-10.1,10.1H186c-2.2,0-4.4-0.7-6.1-2.1L288,137.3h21.9
		C315.5,137.3,320,141.8,320,147.4z"/>
	<path class="st14" d="M320,147.4v248.7c0,5.6-4.5,10.1-10.1,10.1H186c-5.6,0-10.1-4.5-10.1-10.1c0,0,0,0,0,0V147.4
		c0-5.6,4.5-10.1,10.1-10.1h124C315.5,137.3,320,141.9,320,147.4z"/>
	<path class="st17" d="M196.9,154.8h102.2c7.1,0,12.8,5.7,12.8,12.8v203c0,7.1-5.7,12.8-12.8,12.8H196.9c-7.1,0-12.8-5.7-12.8-12.8
		v-203C184.1,160.5,189.9,154.8,196.9,154.8z"/>
	<path class="st8" d="M253.6,395.5c0,3.3-2.7,6.1-6,6.1s-6.1-2.7-6.1-6c0-3.3,2.7-6.1,6-6.1c0,0,0,0,0,0c3.3,0,6,2.6,6.1,5.9
		C253.6,395.4,253.6,395.5,253.6,395.5z"/>
	<polygon class="st8" points="289.3,401 289.3,390 300.3,395.5 	"/>
	<rect x="196.4" y="390.6" class="st8" width="9.9" height="9.9"/>
	<path class="st8" d="M284.4,215.2l-1.6-3.4l-4.2,0.7l-0.3,3.8c-1.3,0.5-2.5,1.1-3.6,1.9l-3.3-2l-2.9,3l2,3.3
		c-1.3,1.9-2.2,4.1-2.6,6.4l-3.8,0.9v4.3l3.8,1c0.2,1.3,0.6,2.6,1.2,3.8l-2.6,3l2.4,3.4l3.7-1.4c0.9,0.9,2,1.7,3.1,2.4l-0.4,4
		l3.9,1.4l2.2-3.3c0.9,0.2,1.8,0.2,2.8,0.2c0.4,0,0.8,0,1.2,0l1.9,3.4l4-1.1l-0.1-3.9c1.2-0.6,2.4-1.3,3.4-2.1l3.5,1.7l2.7-3.4
		l-2.2-3.1c0.7-1.2,1.2-2.4,1.6-3.8l3.8-0.6l0.4-4.2l-3.5-1.3c-0.1-1.4-0.5-2.7-0.9-4l2.7-2.6l-2.1-3.6l-3.6,1c-0.9-1-1.9-2-3-2.8
		l0.7-3.7l-3.8-1.8l-2.4,2.9C287.1,215.4,285.8,215.2,284.4,215.2z M284.3,221.4c5.8,0,10.5,4.7,10.5,10.5c0,5.8-4.7,10.5-10.5,10.5
		c-5.8,0-10.5-4.7-10.5-10.5l0,0C273.9,226.1,278.6,221.4,284.3,221.4z"/>
	<path class="st18" d="M286.2,212.9l-1.6-3.4l-4.2,0.7l-0.3,3.8c-1.3,0.5-2.5,1.1-3.6,1.9l-3.3-2l-2.9,3l2,3.3
		c-1.3,1.9-2.2,4.1-2.6,6.4l-3.8,0.9v4.2l3.8,1c0.2,1.3,0.7,2.6,1.2,3.8l-2.6,3l2.4,3.4l3.7-1.4c0.9,0.9,2,1.7,3.1,2.4l-0.4,3.9
		l3.9,1.4l2.2-3.3c0.9,0.2,1.8,0.2,2.8,0.2c0.4,0,0.8,0,1.2-0.1l1.9,3.4l4-1.1l0-3.9c1.2-0.6,2.4-1.3,3.4-2.1l3.5,1.7l2.7-3.2
		l-2.2-3.1c0.7-1.2,1.2-2.4,1.6-3.8l3.8-0.6l0.4-4.2l-3.6-1.3c-0.1-1.4-0.5-2.7-0.9-4l2.7-2.6l-2.1-3.6l-3.6,1c-0.9-1-1.9-2-3-2.8
		l0.7-3.7l-3.8-1.8l-2.4,2.9C288.9,213.1,287.6,212.9,286.2,212.9z M286.1,219.1c5.8,0,10.5,4.7,10.5,10.5c0,5.8-4.7,10.5-10.5,10.5
		c-5.8,0-10.5-4.7-10.5-10.5l0,0C275.7,223.8,280.4,219.1,286.1,219.1z"/>
	<path class="st8" d="M223.9,179.6l-2.5-5.5l-6.7,1.2l-0.5,6.1c-2,0.8-4,1.8-5.8,3l-5.3-3.1l-4.7,4.8l3.2,5.3
		c-2.1,3.1-3.5,6.5-4.1,10.2l-6.1,1.5v6.7l6.1,1.6c0.4,2.1,1,4.1,1.9,6l-4.1,4.8l3.8,5.5l5.9-2.3c1.5,1.5,3.2,2.8,5,3.8l-0.6,6.3
		l6.3,2.3l3.6-5.2c1.5,0.3,2.9,0.4,4.4,0.4c0.6,0,1.3,0,1.9-0.1l3.1,5.5l6.5-1.7l-0.1-6.2c1.9-0.9,3.8-2.1,5.4-3.4l5.6,2.7l4.3-5.1
		l-3.6-5c1.1-1.9,1.9-3.9,2.5-6l6-1l0.6-6.7l-5.7-2c-0.2-2.2-0.7-4.4-1.5-6.4l4.3-4.2l-3.4-5.8l-5.8,1.6c-1.4-1.7-3.1-3.2-4.9-4.4
		l1.1-5.9l-6.1-2.8l-3.8,4.6C228.2,179.9,226,179.6,223.9,179.6z M223.8,195c6.2,0,11.2,5,11.2,11.2s-5,11.2-11.2,11.2
		s-11.2-5-11.2-11.2l0,0C212.6,200,217.6,195,223.8,195z"/>
	<path class="st8" d="M274.6,321.6l-1.9-4.1l-5,0.9l-0.4,4.5c-1.5,0.6-3,1.3-4.3,2.3l-4-2.3l-3.5,3.5l2.4,4
		c-1.6,2.3-2.6,4.9-3.1,7.6l-4.5,1.1v5l4.6,1.2c0.3,1.6,0.8,3.1,1.4,4.5l-3.1,3.6l2.9,4.1l4.4-1.7c1.1,1.1,2.4,2.1,3.7,2.9l-0.5,4.7
		l4.7,1.7l2.7-3.9c1.1,0.2,2.2,0.3,3.3,0.3c0.5,0,0.9,0,1.4-0.1l2.3,4.1l4.8-1.3l-0.1-4.6c1.5-0.7,2.8-1.5,4.1-2.6l4.2,2l3.2-3.8
		l-2.7-3.7c0.8-1.4,1.5-2.9,1.9-4.5l4.5-0.8l0.4-5l-4.2-1.5c-0.2-1.6-0.5-3.3-1.1-4.8l3.2-3.1l-2.5-4.3l-4.3,1.2
		c-1.1-1.2-2.3-2.4-3.6-3.3l0.8-4.4l-4.5-2.1l-2.9,3.5C277.7,321.8,276.1,321.6,274.6,321.6z M274.5,333.1c4.6,0,8.4,3.7,8.4,8.4
		s-3.7,8.4-8.4,8.4s-8.4-3.7-8.4-8.4v0C266.1,336.9,269.9,333.1,274.5,333.1z"/>
	<path class="st18" d="M276.3,318.6l-1.9-4.1l-5,0.9l-0.4,4.5c-1.5,0.6-3,1.3-4.3,2.3l-4-2.3l-3.5,3.5l2.4,4
		c-1.6,2.3-2.6,4.9-3.1,7.6l-4.5,1.1v5l4.6,1.2c0.3,1.6,0.8,3.1,1.4,4.5l-3.1,3.6l2.9,4.1l4.4-1.7c1.1,1.1,2.4,2.1,3.7,2.9l-0.5,4.7
		l4.7,1.7l2.7-3.9c1.1,0.2,2.2,0.3,3.3,0.3c0.5,0,0.9,0,1.4-0.1l2.3,4.1l4.9-1.3l-0.1-4.6c1.5-0.7,2.8-1.5,4.1-2.6l4.2,2l3.2-3.8
		l-2.7-3.7c0.8-1.4,1.5-2.9,1.9-4.5l4.5-0.8l0.4-5l-4.3-1.5c-0.2-1.6-0.5-3.3-1.1-4.8l3.2-3.1l-2.5-4.3l-4.3,1.2
		c-1.1-1.3-2.3-2.4-3.6-3.3l0.8-4.4l-4.5-2.1l-2.9,3.5C279.5,318.8,277.9,318.6,276.3,318.6z M276.2,330.2c4.6,0,8.4,3.7,8.4,8.4
		s-3.7,8.4-8.4,8.4s-8.4-3.7-8.4-8.4v0C267.9,333.9,271.6,330.2,276.2,330.2z"/>
	<path class="st8" d="M310,286.2v-6.3c-5.7-1-9.5-6.4-8.5-12.1c0.8-4.4,4.2-8.8,8.5-9.6v-8.7l-3.9,0.7l-0.3,3.8
		c-1.3,0.5-2.5,1.1-3.6,1.9l-3.3-2l-3,3l2,3.3c-1.3,1.9-2.2,4.1-2.6,6.4l-3.8,0.9v4.2l3.8,0.9c0.2,1.3,0.7,2.6,1.2,3.8l-2.6,3
		l2.4,3.4l3.7-1.4c0.9,0.9,2,1.7,3.1,2.4l-0.4,4l3.9,1.4l2.2-3.3C309.3,286.1,309.7,286.2,310,286.2z"/>
	<path class="st8" d="M221.1,257.7l-3.8-4.5l-6,2.8l1.1,5.8c-1.8,1.2-3.4,2.7-4.8,4.3l-5.6-1.6l-3.3,5.7l4.2,4.1
		c-0.7,2-1.2,4.2-1.4,6.3l-5.6,2l0.6,6.5l5.9,1c0.6,2.1,1.4,4,2.5,5.9l-3.5,4.9l4.2,5l5.5-2.6c1.6,1.3,3.4,2.5,5.3,3.4l-0.1,6.1
		l6.4,1.7l3-5.4c0.6,0.1,1.2,0.1,1.9,0.1c1.5,0,2.9-0.1,4.3-0.4l3.5,5.1l6.2-2.3l-0.6-6.2c1.8-1.1,3.4-2.3,4.9-3.8l5.8,2.2l3.8-5.4
		l-4.1-4.7c0.9-1.9,1.5-3.9,1.9-5.9l6-1.5v-6.6l-6-1.4c-0.6-3.6-2-7-4.1-10l3.1-5.2l-4.6-4.7l-5.2,3.1c-1.8-1.2-3.6-2.2-5.6-3
		l-0.5-6l-6.5-1.1l-2.5,5.4C225.2,256.9,223.1,257.1,221.1,257.7z M227.4,266.6c9.1,0,16.4,7.4,16.4,16.4c0,9.1-7.4,16.4-16.4,16.4
		c-9.1,0-16.4-7.4-16.4-16.4l0,0C211,274,218.3,266.6,227.4,266.6C227.4,266.6,227.4,266.6,227.4,266.6L227.4,266.6z"/>
	<path class="st18" d="M217.8,255.9l-3.8-4.5l-6,2.8l1.1,5.8c-1.8,1.2-3.4,2.7-4.8,4.3l-5.7-1.6l-3.3,5.7l4.2,4.1
		c-0.7,2-1.2,4.1-1.4,6.3l-5.6,2l0.6,6.5l5.9,1c0.6,2.1,1.4,4,2.5,5.9l-3.5,4.9l4.2,5l5.5-2.6c1.6,1.3,3.4,2.5,5.3,3.4l-0.1,6.1
		l6.4,1.7l3-5.4c0.6,0.1,1.2,0.1,1.9,0.1c1.5,0,2.9-0.1,4.3-0.4l3.5,5.1l6.2-2.3l-0.6-6.2c1.8-1.1,3.4-2.3,4.9-3.8l5.8,2.2l3.8-5.4
		l-4-4.7c0.9-1.9,1.5-3.9,1.9-5.9l6-1.5V278l-6-1.5c-0.6-3.6-2-7-4.1-10l3.1-5.2l-4.6-4.7l-5.2,3.1c-1.7-1.2-3.6-2.2-5.6-3l-0.5-6
		l-6.5-1.1L224,255C221.9,255,219.8,255.3,217.8,255.9z M224.2,264.8c9.1,0,16.4,7.3,16.4,16.4c0,9.1-7.3,16.4-16.4,16.4
		s-16.4-7.3-16.4-16.4c0,0,0,0,0,0C207.8,272.2,215.1,264.8,224.2,264.8z"/>
	<path class="st8" d="M185.8,367.3l3.5,5.1l6.2-2.2l-0.6-6.2c1.8-1.1,3.4-2.3,4.9-3.8l5.8,2.2l3.8-5.4l-4.1-4.7
		c0.9-1.9,1.5-3.9,1.9-5.9l6-1.4v-6.6l-6-1.5c-0.6-3.6-2-7-4.1-10l3.1-5.2l-4.7-4.6l-5.2,3.1c-1.7-1.2-3.6-2.2-5.6-3l-0.5-6l-6-1.1
		v15.3c8.9,1.6,14.9,10.1,13.3,19c-1.2,6.8-6.5,12.2-13.3,13.3v9.8C184.7,367.5,185.3,367.4,185.8,367.3z"/>
	<path class="st18" d="M185.8,363.4l3.5,5.1l6.2-2.3l-0.6-6.2c1.8-1.1,3.4-2.3,4.9-3.8l5.8,2.2l3.8-5.4l-4.1-4.7
		c0.9-1.9,1.5-3.9,1.9-5.9l6-1.4v-6.6l-6-1.5c-0.6-3.6-2-7-4.1-10l3.1-5.2l-4.7-4.6l-5.2,3.1c-1.7-1.2-3.6-2.2-5.6-3l-0.5-6l-6-1.1
		v15.3c8.9,1.6,14.9,10.1,13.3,19c-1.2,6.8-6.5,12.2-13.3,13.3v9.8C184.7,363.6,185.3,363.5,185.8,363.4z"/>
	<path class="st18" d="M222.1,177.1l-2.5-5.5l-6.7,1.2l-0.5,6.1c-2,0.8-4,1.8-5.8,3l-5.3-3.1l-4.7,4.7l3.2,5.3
		c-2.1,3.1-3.5,6.5-4.2,10.2l-6.1,1.5v6.7l6.1,1.5c0.4,2.1,1,4.1,1.9,6l-4.1,4.8l3.8,5.5l5.9-2.3c1.5,1.5,3.2,2.8,5,3.9l-0.6,6.3
		l6.3,2.3l3.6-5.2c1.5,0.3,2.9,0.4,4.4,0.4c0.6,0,1.3,0,1.9-0.1l3.1,5.5l6.5-1.7l-0.1-6.2c1.9-0.9,3.8-2.1,5.4-3.4l5.6,2.7l4.3-5.1
		l-3.6-5c1.1-1.9,1.9-3.9,2.5-6l6-1l0.6-6.7l-5.7-2c-0.2-2.2-0.7-4.3-1.5-6.4l4.3-4.2l-3.4-5.8l-5.8,1.6c-1.4-1.7-3.1-3.2-4.9-4.4
		l1.1-5.9l-6.1-2.8l-3.8,4.6C226.4,177.4,224.2,177.1,222.1,177.1z M222,192.6c6.2,0,11.2,5,11.2,11.2s-5,11.2-11.2,11.2
		s-11.2-5-11.2-11.2l0,0C210.8,197.6,215.8,192.6,222,192.6C222,192.6,222,192.6,222,192.6z"/>
	<path class="st18" d="M311.9,284.6v-6.3c-5.7-1-9.5-6.4-8.5-12.1c0.7-4.4,4.2-7.8,8.5-8.5V248l-3.9,0.7l-0.3,3.8
		c-1.3,0.5-2.5,1.1-3.6,1.9l-3.3-2l-3,3l2,3.3c-1.3,1.9-2.2,4.1-2.6,6.4l-3.8,0.9v4.2l3.8,0.9c0.2,1.3,0.7,2.6,1.2,3.8l-2.6,3
		l2.4,3.4l3.7-1.4c0.9,0.9,2,1.7,3.1,2.4l-0.4,4l3.9,1.4l2.2-3.3C311.2,284.5,311.6,284.6,311.9,284.6z"/>
	<circle class="st19" cx="221.9" cy="203.8" r="16.2"/>
	<circle class="st19" cx="223.8" cy="281.2" r="21.2"/>
	<circle class="st14" cx="276.2" cy="338.5" r="12.8"/>
</g>
<g id="freepik--character-1--inject-14">
	<path class="st8" d="M92.7,167c3.2,2.2,6.8,3.8,9.5,6.6c3.1,3.4,4.9,7.8,5,12.3c0.1,4.5-0.7,9.1-2.5,13.3c-0.8,2.6-2.2,4.9-4.2,6.8
		c-2,1.6-4.3,2.7-6.8,3.1c-4.9,0.9-9.9,0.6-14.6-0.9c-4.2-1.1-8.1-3.4-11.2-6.4c-2.3-2.6-4.2-5.5-5.5-8.8
		c-2.2-4.9-3.5-10.1-4.1-15.5c-0.3-5.2-0.2-10.4,0.3-15.5l1-12.8c0.2-2.3-0.1-8.3,2.8-9.3c2.4-0.8,6.2,3.2,7.8,4.7
		c5.1,4.6,9.3,10.1,14,15C86.8,162.4,89.6,164.9,92.7,167z"/>
	<path class="st5" d="M78.8,186c0,0,11.9,0.9,17.9-2.9s19.7,11.5,19.7,11.5l-4.7,79.9c0,0-12,2.5-19.4-1s-11-3.4-12.8-7.6
		s-1.8-11.2-9.4-17.3s-7.7-9.3-10-13.1s-10-9.2-10.5-13.5s0.3-15,0.3-15l14.6-11.4C64.5,195.7,68.1,183.1,78.8,186z"/>
	<path class="st10" d="M88.2,197.4c0.5,5.3,1.6,10.4,3.3,15.4c-6.4,0.2-12.6,1.9-18.1,5c4.3,6.5,9.5,12.2,15.7,16.9
		c1.4-1.8,3.4-3.1,5.7-3.6c0.9-0.2,1.8-0.3,2.6-0.6c0.8-0.3,1.5-0.7,2.2-1.1c7.9-5.3,12.8-14,13.1-23.6c0-5.5-1.2-11-3.6-16
		c-1.9-4.1-4.7-8.3-9-9.4c-2.3-0.5-4.7-0.3-7,0.3c-1.8,0.4-4.4,0.7-6,1.7c-2.4,1.6-1.7,1-0.9,3.7C87.2,189.8,87.9,193.6,88.2,197.4z
		"/>
	<path class="st6" d="M71,147.5c0,0,6.3,10.9,8.1,16.2c1.3,4.3,1.7,8.9,1,13.4c0.5,2.9,1.4,5.7,2.9,8.2l3.9,0.7
		c0,0,5.3,11.2,5.7,27.8c0,0-9.1-11.5-15.4-14.6s-5-2.7-5-2.7s-5.2-9.1-7.9-11.9s-14.4,6.3-14.4,6.3l-12.2-19.4l6-11.3l8.1-6.3
		l8-6.5H71z"/>
	<path class="st17" d="M119.4,421.4c4,5.2,9.9,8.6,16.4,9.6c1.5,0.2,3.4,0.1,4.1-1.3c0.2-0.6,0.3-1.3,0.1-2
		c-1.5-8.7-9.7-14.3-14.2-21.9c-1.3-2.1-2.9-7.7-5.7-7.3c-1.2,0.2-4.7,4-5.3,5.2C112.1,408.9,116.2,417.3,119.4,421.4z"/>
	<path class="st17" d="M114.8,403.8c0,0,0.7,9.5,6.7,15s7.7,8.7,18.4,9"/>
	<path class="st17" d="M147,386.4c0,0-1.9,10.8,2.2,16.2s8.2,4.3,14.8,5.5c4.4,0.8,8.1,4,12.7,2.8c4.2-1,1.6-4.1-0.4-5.8
		c-4.4-3.7-9.6-6.3-14.1-10c-7.7-6.4-6.4-12-6.4-12L147,386.4z"/>
	<path class="st14" d="M147.8,399.9c1.8,1.1,2.8,2.6,4.6,3.7c2.7,1.5,5.9,1.3,8.9,1.6c1.8,0.2,3.5,0.5,5.2,1.1
		c1.8,0.7,3.6,1.3,5.5,1.6c1.9,0.2,3.8-0.1,5.5-0.9"/>
	<path class="st8" d="M93.6,273.6c0,0-7.8,26.3,0,53.8s0.4,44.4,17.7,78.5c0,0,8.1,6.7,13.7-3.1c0,0-1.6-38.1-4.3-47.1
		s8.9-28.7,5.1-47.5c-2.6-12-6.6-23.5-12.1-34.5C113.6,273.6,100.6,276.4,93.6,273.6z"/>
	<path class="st8" d="M132.2,337.9c0,0,5.8,38.2,12.9,52.6c0,0,8.3,6,13.5-1.7c0,0,0.6-63.5-4.6-68.4S132.2,337.9,132.2,337.9z"/>
	<path class="st6" d="M219,87.9l33.9,205.8c0.7,4.3-2.5,8.3-7.2,9c0,0,0,0,0,0l-121.5,16.9c-4.7,0.7-9-2.3-9.8-6.6c0,0,0,0,0,0
		L80.5,107.2c-0.7-4.3,2.5-8.3,7.2-9l121.5-16.9c3.5-0.5,6.9,1,8.7,3.8C218.5,85.9,218.9,86.9,219,87.9z"/>
	
		<rect x="195.9" y="105.6" transform="matrix(0.9888 -0.1495 0.1495 0.9888 -13.5975 31.6971)" class="st8" width="16.2" height="1.4"/>
	
		<rect x="195.3" y="101.6" transform="matrix(0.9888 -0.1495 0.1495 0.9888 -13.0139 31.5639)" class="st8" width="16.2" height="1.4"/>
	
		<rect x="195" y="97.7" transform="matrix(0.9887 -0.1498 0.1498 0.9887 -12.4483 31.5328)" class="st8" width="16.2" height="1.4"/>
	<g>
		
			<rect x="120" y="254.4" transform="matrix(0.9887 -0.1498 0.1498 0.9887 -36.2593 29.5614)" class="st8" width="116.1" height="2.1"/>
		
			<rect x="120.6" y="259.7" transform="matrix(0.9888 -0.1495 0.1495 0.9888 -36.985 29.6346)" class="st8" width="115.9" height="2.1"/>
		
			<rect x="121.4" y="265.3" transform="matrix(0.9888 -0.1495 0.1495 0.9888 -37.8084 29.8249)" class="st8" width="115.9" height="2.1"/>
		
			<rect x="122.6" y="271.2" transform="matrix(0.9887 -0.1498 0.1498 0.9887 -38.7403 30.1316)" class="st8" width="116.1" height="2.1"/>
	</g>
	<path class="st8" d="M166.1,234.3c0.2,1-0.5,1.9-1.5,2c-1,0.2-1.9-0.5-2-1.5s0.5-1.9,1.5-2c0,0,0,0,0,0
		C165.1,232.7,166,233.4,166.1,234.3z"/>
	<path class="st8" d="M174.5,233.1c0.1,1-0.5,1.9-1.5,2c-1,0.1-1.9-0.5-2-1.5c-0.1-1,0.5-1.9,1.5-2c0,0,0,0,0,0
		C173.5,231.4,174.4,232.1,174.5,233.1z"/>
	<path class="st8" d="M182.9,231.8c0.2,1-0.5,1.9-1.5,2c-1,0.2-1.9-0.5-2-1.5s0.5-1.9,1.5-2c0,0,0,0,0,0
		C181.9,230.2,182.8,230.8,182.9,231.8z"/>
	<path class="st17" d="M99.9,113.2l55.5-8.4c2-0.3,3.9,1.1,4.3,3.1l0.2,1.2c0.3,2-1.1,3.9-3.1,4.3l-55.5,8.4c-2,0.3-3.9-1.1-4.3-3.1
		l-0.2-1.2C96.5,115.4,97.9,113.5,99.9,113.2z"/>
	<line class="st7" x1="102.8" y1="119.5" x2="102.1" y2="115.2"/>
	
		<rect x="106.5" y="128.3" transform="matrix(0.9888 -0.1495 0.1495 0.9888 -24.7192 26.5829)" class="st3" width="115.8" height="98.7"/>
	
		<rect x="106.5" y="128.3" transform="matrix(0.9888 -0.1495 0.1495 0.9888 -24.7192 26.5829)" class="st20" width="115.8" height="98.7"/>
	
		<rect x="106.5" y="128.3" transform="matrix(0.9888 -0.1495 0.1495 0.9888 -24.7192 26.5829)" class="st14" width="115.8" height="98.7"/>
	<circle class="st21" cx="196.9" cy="145.6" r="11.2"/>
	<path class="st3" d="M220.8,163.7l8.2,54.2l-114.5,17.3l-5.1-33.9c3.5-8,8.7-17.2,14.8-19.9c11.3-5,22.9,28.3,44.3,22.8
		S193.9,163.9,220.8,163.7z"/>
	<path class="st22" d="M220.8,163.7l8.2,54.2l-114.5,17.3l-5.1-33.9c3.5-8,8.7-17.2,14.8-19.9c11.3-5,22.9,28.3,44.3,22.8
		S193.9,163.9,220.8,163.7z"/>
	<path class="st14" d="M220.8,163.7l8.2,54.2l-114.5,17.3l-5.1-33.9c3.5-8,8.7-17.2,14.8-19.9c11.3-5,22.9,28.3,44.3,22.8
		S193.9,163.9,220.8,163.7z"/>
	<path class="st10" d="M219,88.3l33.9,205.4c0.7,4.3-2.5,8.3-7.2,9c0,0,0,0,0,0l-121.8,16.9c-2.2,0.3-4.5-0.2-6.3-1.4
		c27.1-22,112.7-102.5,100.3-232.7C218.4,86.3,218.8,87.2,219,88.3z"/>
	<path class="st14" d="M218.6,87.9l33.8,205.7c0.7,4.3-2.5,8.3-7.2,9c0,0,0,0,0,0L124,319.4c-4.7,0.7-9-2.3-9.7-6.6c0,0,0,0,0,0
		L80.5,107.1c-0.7-4.3,2.5-8.3,7.2-9l121.2-16.9c3.4-0.5,6.9,1,8.6,3.8C218.1,85.9,218.5,86.9,218.6,87.9z"/>
	<path class="st7" d="M72.3,149.3c0,0,6.6,13,8.3,17.8s0,12.6-4.2,16.1s-8.8,3.3-14,0.8c-3.6-1.9-7.1-4-10.4-6.5
		c-0.4,0-0.7,0-1.1,0.1c-1,0-5-1.6-6.4-4.1c-3.4-6.3,4.1-4,5.6-3"/>
	<path class="st7" d="M71,162.7c0.7,1.6,1.9,3,3.4,3.9c0.7,0.3,1.2,0.8,1.6,1.3c0.3,0.7,0.2,1.5-0.3,2.1c-0.5,0.6-1.1,1.1-1.7,1.5"
		/>
	<path class="st7" d="M68.2,176.6c1.5,0.6,3.2,0.6,4.7,0"/>
	<path class="st8" d="M66.7,166.2c0.4,0.9,0.4,1.7,0.1,1.9s-1-0.4-1.4-1.3s-0.4-1.7-0.1-1.9S66.3,165.3,66.7,166.2z"/>
	<path class="st8" d="M74.3,161.1c0.4,0.9,0.4,1.7,0.1,1.9s-1-0.4-1.4-1.3s-0.4-1.7-0.1-1.9S73.9,160.2,74.3,161.1z"/>
	<path class="st7" d="M64.5,161.2c0,0-3.2,0-3.9,3.8"/>
	<path class="st7" d="M70.1,157.8c0,0,1.1-2.5,3.2-1"/>
	<path class="st8" d="M49.5,170.2c0.2,0.1,9.6-4.9,10.7-19.1c0,0,5.4,4.1,14.2,0.7c0,0-7.3-15-17.9-12.9s-19.9,9-20.3,21.5
		c-0.3,8.8,1.7,17.7,1.7,26.5c0.2,4.5-0.4,9-1.6,13.3c-2.3,7.2-7.3,12-5.1,20.2c1.6,6,7,13,13.4,12.2c2.7-0.4,9-1.9,10-3.2
		c-1.6-2.2-2.7-4.7-3.2-7.4c-0.4-7.3,1.2-10.1,1.2-10.1l16.9-19.6l-4.7-7.4L52,177.6c0,0-5.3,0.6-8.3-6
		C43.2,167.6,49.5,170.2,49.5,170.2z"/>
	<path class="st7" d="M89.4,235.6c0,0-12.9-9.9-18.6-20.8"/>
	<path class="st7" d="M96.8,231.5c-0.3-0.9-1.7-1-2.5-0.5c-0.8,0.6-1.5,1.3-2.2,2c-0.6,0.4-1.2,0.8-1.7,1.3
		c-0.5,0.7-0.8,1.4-0.8,2.2c-0.6,3.4-0.6,6.8-0.1,10.2"/>
	<path class="st7" d="M85.4,246.6c0.3-2.6,0.9-5.2,1.9-7.6"/>
	<path class="st7" d="M102.1,249.6c1.1,1,1.1,2.7,0.1,3.7c0,0-0.1,0.1-0.1,0.1c-0.4,0.3-0.9,0.6-1.4,0.9c-1.4,0.9-2.2,2.6-3.5,3.7
		c-1.8,1.5-4.8,1.6-6.3-0.1c-1.3-1.5-1.6-4.5-1.6-6.5"/>
	<path class="st7" d="M90.2,257.9c-8.4,1-35.5-28.4-35.5-28.4c-4-5-4.1-12.6-1.1-18.3c2.9-5.4,8.6-8.8,11.9-14"/>
	<path class="st7" d="M65.6,185.7c2.4,2.8,4.2,6.2,5.2,9.8"/>
	<path class="st7" d="M80.2,177.1c0,4,1.7,7.8,4.7,10.5"/>
	<path class="st7" d="M67.2,194.3c-2,2.1-1.2,6.4,1.4,7.8s6,0.2,9,0.9c0.4,0.1,0.8,0.3,1.1,0.5c0.4,0.6,0.6,1.3,0.6,2.1
		c0,1.6,0.3,3.3,1.6,4.2c0.8,0.5,1.8,0.7,2.7,0.9c5.1,1.2,8.6,4.3,11.2,8.9"/>
	<path class="st7" d="M70.2,195.7c11.8,4.8,21.1,14.4,25.6,26.3"/>
	<path class="st7" d="M59.6,234.8c3,9.7,13.9,14.5,17.3,24c0.9,2.4,1.2,5.1,2.7,7.2c1.9,2.7,5.2,4,8.2,5.2c2.1,0.8,4.5,2.6,6.6,3.4"
		/>
	<path class="st7" d="M104.3,275.1c-2.6-0.3-4.7-2.4-6.3-4.5s-3.2-4.4-5.6-5.6"/>
	<path class="st7" d="M83.2,185.6c3.5,0.7,7.1,0.4,10.5-0.9"/>
	<path class="st7" d="M87.2,186c2.9,8.8,5.9,19.4,5.2,28.8"/>
	<path class="st6" d="M94.7,233.2c0,0,0.4,12,5.7,17.1c0,0,13-12.8,18.5-20.8s11.7-17.4,13.5-23.9s-2.8-8.4-2.8-8.4
		s-1.4-3.7-2.8-3.3s-3.8,7.3-3.8,7.3s-1.5-3.5-4.4,1.6s-4.3,7.5-2.3,12.2l-11.4,11.1L94.7,233.2z"/>
	<path class="st7" d="M121.4,205.5c0,0,2.5-6.8,0-5.4s-4.8,5.5-5.7,7.8s0.6,7.1,0.6,7.1c-6.2,8.2-15.8,14.6-21.6,18.1"/>
	<path class="st7" d="M121.7,204.6c0,0,3.5-9.5,5.1-10.7s1.6,2.6,1.6,2.6s2.5,1.2,2.9,2.6s1.6,2.5,1.3,5.4s-7.7,16-7.7,16
		c-2.4,5.1-14.8,20.4-24.5,29.7"/>
	<path class="st7" d="M128.4,196.5c-0.2,1.9-0.6,3.8-1.1,5.6"/>
	<path class="st7" d="M95,232.9c-0.5,0.4-0.7,1-0.6,1.6c0.2,6.4,2.6,12.5,6.8,17.3"/>
	<path class="st11" d="M42.4,173.2c1.9,7.1,2.5,14.5,1.8,21.8c-0.6,5.6-2,11.2-1.8,16.8s2.3,11.6,7.1,14.6"/>
	<path class="st11" d="M46.9,165.1c3.1-5.5,5.7-11.2,7.9-17.1"/>
	<path class="st11" d="M43.3,164.1c2.5-5.9,1.9-12.5,3.9-18.6"/>
	<path class="st8" d="M67.6,185.8c0,0,6.7,3.1,10.1,1.8s1.9-8.8,1.9-8.8S76.2,187.2,67.6,185.8z"/>
</g>
</svg>
